<?xml version="1.0" encoding="UTF-8"?>
<svg xmlns="http://www.w3.org/2000/svg" viewBox="0 0 373.87 73.52">
  <defs>
    <style>
      .cls-1 {
        font-family: DMMono-Medium, 'DM Mono';
        font-size: 64.64px;
        font-weight: 500;
      }

      .cls-1, .cls-2 {
        fill: #fff;
      }

      .cls-3 {
        isolation: isolate;
      }
    </style>
  </defs>
  <g id="DeepScan" class="cls-3">
    <text class="cls-1" transform="translate(90.73 54.95)"><tspan x="0" y="0">DeepScan</tspan></text>
  </g>
  <g id="svgviewer-output_图像" data-name="svgviewer-output 图像">
    <path class="cls-2" d="M45.16,4.38c1.33,1.68,2.03,3.53,1.96,5.65-.03.86,0,1.72,0,2.69.26,0,.49,0,.71,0,1.14.05,2.3-.04,3.4.18,2.17.44,3.66,2.38,3.71,4.59.02,1.18.02,2.36,0,3.54-.01.88-.53,1.4-1.4,1.41-3.01,0-6.01.03-9.02,0-2.57-.04-4.65-2.17-4.71-4.74-.01-.68,0-1.37,0-2.09h-3.02c-.81,3.64.58,7.28,3.5,9.01.63.37,1.36.6,2.07.83.19.06.53-.05.69-.2.85-.81,2.07-.83,2.83.01.73.81.64,2.04-.21,2.73-.87.71-2.11.51-2.8-.42-.15-.19-.4-.37-.63-.43-4.27-.97-7.12-4.46-7.18-8.83-.01-.88,0-1.76,0-2.74-.27,0-.5,0-.72,0-3.52,0-7.04,0-10.55,0-3.15,0-5.19-2.05-5.19-5.22,0-1,0-2,0-3.01,0-.99.5-1.5,1.48-1.5,5.92,0,11.83-.01,17.75,0,2.68,0,4.78,2.08,4.87,4.76.02.68,0,1.37,0,2.09h3.03c.37-3.31.02-6.36-2.79-8.6-1.19-.95-2.54-1.48-4.07-1.48-1.81,0-3.62-.01-5.42.01-.22,0-.5.18-.64.36-.54.72-1.36,1.03-2.18.77-.81-.25-1.33-.97-1.32-1.82,0-.84.55-1.57,1.35-1.81.8-.24,1.65.04,2.11.78.2.33.43.38.77.38,1.65-.01,3.3.02,4.95,0,2.72-.04,4.92,1.02,6.68,3.12Z"/>
    <path class="cls-2" d="M33.57,54.79c.08,1.08.15,2.11.22,3.18h2.97c.82-3.53-.6-7.24-3.46-8.99-.47-.28-.98-.49-1.49-.7-.57-.23-1.06-.32-1.61.24-.74.75-2.02.51-2.65-.34-.62-.82-.46-2,.35-2.64.83-.65,2.05-.5,2.67.37.22.32.46.47.83.55,4.17.94,7.04,4.49,7.1,8.78.01.9,0,1.8,0,2.76.27,0,.48,0,.69,0,3.54,0,7.08,0,10.61,0,3.07,0,5.14,2.07,5.15,5.14,0,1.04,0,2.08,0,3.12,0,.94-.52,1.46-1.47,1.46-5.94,0-11.87.02-17.81,0-2.7-.01-4.79-2.16-4.82-4.87,0-.65,0-1.29,0-2.02-.98,0-1.92-.01-2.85.02-.09,0-.25.23-.25.35,0,1.1-.04,2.2.03,3.3.19,2.77,2.98,6.58,7.09,6.46,1.73-.05,3.46-.01,5.19,0,.32,0,.52-.06.71-.37.45-.74,1.31-1.03,2.1-.8.79.23,1.36.97,1.38,1.8.01.82-.52,1.57-1.32,1.83-.82.27-1.68,0-2.16-.77-.19-.3-.39-.38-.71-.38-1.73.01-3.46-.03-5.19.01-4.97.11-8.55-4.43-8.46-8.51.02-.96,0-1.92,0-2.95-1.03,0-2.01,0-2.98,0-2.34-.03-4.37-1.61-4.71-3.92-.22-1.54-.12-3.13-.09-4.7.01-.62.6-1.08,1.28-1.08,3.09-.01,6.17-.05,9.26.02,2.09.05,3.72,1.47,4.41,3.64Z"/>
    <path class="cls-2" d="M55.18,36.72c-3.44.13-6.22,2.32-7.05,5.5-.1.37-.09.63.23.93.82.77.76,2.04-.08,2.77-.82.71-2.06.6-2.73-.25-.67-.85-.49-2.05.37-2.73.23-.18.45-.49.51-.77.95-4.16,4.52-7.05,8.8-7.09.9,0,1.8,0,2.77,0,0-.27,0-.48,0-.69,0-3.56,0-7.12,0-10.67,0-3,2.08-5.07,5.08-5.09,1.06,0,2.12,0,3.18,0,.95.01,1.46.52,1.46,1.46,0,5.94.03,11.87,0,17.81-.02,2.69-2.15,4.74-4.83,4.81-.66.02-1.33,0-2.03,0v3.03c3,.27,5.85.15,8.1-2.22,1.29-1.36,2.02-2.92,1.99-4.82-.02-1.73,0-3.46,0-5.19,0-.31-.04-.53-.35-.72-.77-.47-1.05-1.34-.8-2.15.25-.79.99-1.33,1.83-1.33.84,0,1.55.55,1.8,1.36.25.83-.06,1.6-.8,2.16-.18.13-.33.42-.34.65-.04,1-.1,2.01,0,3.01.75,7.29-4.21,11.33-10.63,10.64-.25-.03-.5,0-.83,0,0,1.03,0,2.01,0,2.98-.03,2.64-2.09,4.75-4.74,4.84-.63.02-1.26,0-1.89,0-.59,0-1.18.02-1.77,0-.78-.03-1.31-.53-1.31-1.31-.01-3.09-.06-6.17.02-9.26.07-2.52,2.22-4.5,4.76-4.56.67-.02,1.33,0,2.05,0v-3.09c-.9,0-1.81,0-2.78,0Z"/>
    <path class="cls-2" d="M12.68,30.66c0-.86,0-1.67.02-2.47,0-.33-.12-.45-.45-.44-1,.02-2.01-.03-3.01.02-3.55.18-6.67,3.47-6.68,7.02,0,1.77-.01,3.54.01,5.31,0,.22.16.51.34.64.73.55,1.05,1.34.8,2.17-.24.79-.98,1.35-1.81,1.35-.82,0-1.59-.55-1.82-1.34-.25-.83.04-1.69.8-2.15.32-.19.36-.4.36-.71,0-1.77-.01-3.54,0-5.31.02-4.42,3.8-8.24,8.23-8.3,1.04-.02,2.08,0,3.15,0,.02-.2.05-.35.05-.5,0-.85-.01-1.69,0-2.54.06-2.63,2.11-4.7,4.73-4.77,1.18-.03,2.36-.02,3.54,0,.95,0,1.44.51,1.44,1.48,0,2.91.01,5.82,0,8.73-.01,2.75-2.09,4.84-4.84,4.9-.65.01-1.29,0-1.99,0v3.08c2.16.04,4.35.24,6.34-.94,1.74-1.03,2.9-2.49,3.46-4.44.12-.43.12-.73-.26-1.08-.78-.74-.68-2.02.14-2.72.8-.69,2.01-.58,2.69.23.69.84.57,2.08-.32,2.71-.34.24-.48.5-.57.89-.89,4.03-4.47,6.94-8.6,7.02-.94.02-1.88,0-2.93,0,0,.26,0,.48,0,.71,0,3.46,0,6.92,0,10.38,0,3.37-1.99,5.37-5.34,5.37-.96,0-1.93,0-2.89,0-.99,0-1.48-.5-1.48-1.49,0-5.9-.02-11.79,0-17.69,0-2.81,2.14-4.88,4.96-4.91.63,0,1.26-.08,1.9-.18Z"/>
  </g>
</svg>