<svg version="1.1" id="Layer_1" xmlns="http://www.w3.org/2000/svg" xmlns:xlink="http://www.w3.org/1999/xlink" x="0px" y="0px"
	 width="100%" viewBox="0 0 3292 824" enable-background="new 0 0 3292 824" xml:space="preserve">
<path fill="#000000" opacity="1.000000" stroke="none" 
	d="
M2334.000000,825.000000 
	C1556.000000,825.000000 778.500000,825.000000 1.000000,825.000000 
	C1.000000,550.333313 1.000000,275.666656 1.000000,1.000000 
	C1098.333374,1.000000 2195.666748,1.000000 3293.000000,1.000000 
	C3293.000000,275.666656 3293.000000,550.333313 3293.000000,825.000000 
	C2973.500000,825.000000 2654.000000,825.000000 2334.000000,825.000000 
M401.969238,509.400360 
	C401.131531,517.534363 403.718018,523.077087 409.829224,526.243896 
	C415.485138,529.174805 422.573395,528.534607 426.890503,523.756165 
	C429.673065,520.676208 432.226318,520.622437 435.648102,521.717712 
	C474.557343,534.172852 482.025208,566.699158 477.757904,600.152344 
	C471.189728,600.152344 464.552979,599.984436 457.930634,600.220825 
	C454.444458,600.345215 453.678345,598.870422 453.831177,595.782471 
	C454.028625,591.793701 453.928070,587.786560 453.859283,583.789001 
	C453.496277,562.689087 437.308350,545.766846 416.242096,545.391296 
	C392.423981,544.966614 368.592438,545.220764 344.767273,545.315308 
	C337.383789,545.344604 333.461578,549.445007 333.358337,556.921997 
	C333.245636,565.084412 333.308533,573.249756 333.334045,581.413696 
	C333.411987,606.349060 349.768372,622.666687 374.735504,622.727600 
	C381.521271,622.744141 388.307098,622.730103 395.699524,622.730103 
	C395.699524,631.392212 395.636169,639.505371 395.710449,647.617310 
	C396.036896,683.280762 426.248962,713.575256 461.827576,713.860657 
	C475.822144,713.972900 489.820618,713.762268 503.811249,714.023987 
	C505.852539,714.062134 508.473114,715.421936 509.771667,717.024292 
	C514.263000,722.566528 520.598145,725.028015 527.004211,723.027466 
	C533.190613,721.095520 537.494629,715.261047 537.554504,708.725525 
	C537.614441,702.179810 533.429749,696.305359 527.246887,694.255676 
	C520.882507,692.145813 513.946594,694.251404 510.110992,700.109863 
	C508.367523,702.772827 506.474701,703.394409 503.574799,703.369507 
	C489.580353,703.249084 475.584320,703.285950 461.588898,703.312805 
	C449.240875,703.336426 438.450012,699.132141 428.908752,691.449707 
	C406.664734,673.539185 403.724335,649.392273 406.864929,623.137451 
	C414.753967,623.137451 422.625488,623.137451 430.872131,623.137451 
	C430.872131,628.520874 430.819489,633.503052 430.881226,638.483704 
	C431.152222,660.339905 447.678558,677.435120 469.447632,677.542236 
	C516.597839,677.774292 563.750000,677.643311 610.901367,677.600403 
	C618.847412,677.593201 622.718994,673.554749 622.794556,665.451172 
	C622.869141,657.454407 622.834595,649.456421 622.809570,641.459045 
	C622.731262,616.445862 606.487671,600.202026 581.444519,600.166382 
	C553.453674,600.126526 525.462646,600.155762 497.471741,600.154968 
	C495.713745,600.154968 493.955780,600.155029 491.724548,600.155029 
	C491.724548,592.772461 491.754272,586.140625 491.719604,579.509094 
	C491.533203,543.856689 469.119019,515.914551 434.412384,507.858307 
	C432.684937,507.457306 430.739014,506.276276 429.717255,504.863586 
	C425.945496,499.648743 421.046570,497.038849 414.691620,497.893677 
	C408.325745,498.750000 404.184570,502.559509 401.969238,509.400360 
M562.499939,316.805176 
	C578.663818,316.804138 594.827820,316.849518 610.991455,316.781708 
	C618.647888,316.749603 622.690979,312.706482 622.789673,305.035614 
	C622.890381,297.204926 622.827576,289.371918 622.812378,281.539978 
	C622.761353,255.231949 606.757507,239.304016 580.358704,239.278580 
	C573.916321,239.272369 567.473938,239.277649 560.481873,239.277649 
	C560.481873,230.680847 560.544861,222.725037 560.471069,214.770477 
	C560.134094,178.455276 529.925476,148.309891 493.696106,148.146057 
	C480.032074,148.084259 466.367188,148.081253 452.703552,148.175720 
	C449.860718,148.195374 447.868103,147.737000 446.099854,145.017014 
	C442.225037,139.056488 435.462311,136.965714 429.021912,139.057968 
	C422.813843,141.074738 418.624268,146.881577 418.633392,153.456619 
	C418.642517,160.019821 422.883575,165.850983 429.078094,167.817276 
	C435.514404,169.860321 442.253021,167.720413 446.147095,161.776566 
	C447.791626,159.266342 449.587891,158.654984 452.290619,158.689819 
	C460.787750,158.799301 469.288635,158.630386 477.785248,158.757095 
	C486.436798,158.886124 495.420197,157.805084 503.677368,159.736938 
	C542.080383,168.721695 554.897827,202.845261 549.067078,238.946777 
	C541.326233,238.946777 533.576477,238.946777 525.270386,238.946777 
	C525.270386,233.672897 525.320984,228.712860 525.261658,223.754150 
	C524.995789,201.530640 508.544800,184.569611 486.423370,184.470535 
	C439.432465,184.260071 392.439941,184.378601 345.448181,184.425797 
	C337.395966,184.433884 333.445068,188.419327 333.355499,196.406372 
	C333.262115,204.737213 333.293365,213.070129 333.340729,221.401733 
	C333.476715,245.316757 350.082123,261.841461 374.062927,261.874664 
	C402.224670,261.913635 430.386475,261.885132 458.548248,261.885864 
	C460.329681,261.885925 462.111084,261.885895 464.477753,261.885895 
	C464.477753,270.097778 464.309296,277.722443 464.506866,285.337646 
	C465.376801,318.868652 488.429596,346.673248 521.096069,354.065369 
	C523.356995,354.576965 525.690430,356.411194 527.208130,358.269196 
	C532.758118,365.063568 542.396301,366.379944 549.022400,360.905914 
	C555.538757,355.522583 556.407043,345.866333 550.953186,339.432739 
	C545.379333,332.857605 535.268127,332.051483 529.211182,338.339081 
	C526.340088,341.319519 523.878296,341.332977 520.439026,340.313324 
	C505.003632,335.737152 493.318085,326.509491 485.159210,312.652039 
	C475.811005,296.774567 477.470917,279.475769 477.829346,262.188416 
	C486.175842,262.188416 493.926727,262.188416 502.271606,262.188416 
	C502.271606,267.758667 502.175751,273.042175 502.288391,278.321228 
	C502.746460,299.788055 519.559814,316.491882 541.003601,316.784668 
	C547.834534,316.877930 554.667725,316.803070 562.499939,316.805176 
M337.994507,431.046204 
	C328.429932,431.046204 318.865356,431.046204 309.348663,431.046204 
	C309.348663,422.878815 309.348663,414.996307 309.348663,406.820251 
	C314.917847,406.820251 320.070770,406.885864 325.221558,406.808807 
	C346.659180,406.488129 363.630402,389.672333 363.794434,368.256744 
	C363.973053,344.927765 363.871826,321.596313 363.821686,298.266083 
	C363.805023,290.510071 359.856171,286.419983 352.224792,286.314545 
	C343.061127,286.187958 333.889374,286.097229 324.729767,286.330170 
	C303.105499,286.880066 286.787567,303.436279 286.358765,325.121643 
	C286.230286,331.618347 286.352509,338.119751 286.305664,344.618591 
	C286.296631,345.873566 286.035095,347.126678 285.855835,348.676270 
	C277.477905,348.676270 269.492279,348.619141 261.507721,348.686066 
	C225.552963,348.987549 195.365952,379.245697 195.171524,415.205109 
	C195.096741,429.036285 195.123535,442.868317 195.184982,456.699615 
	C195.196625,459.320160 194.866013,461.214050 192.238647,462.878235 
	C186.192963,466.707642 184.011368,473.399323 186.011261,479.849060 
	C187.938019,486.062897 193.743378,490.420959 200.237762,490.528900 
	C206.670792,490.635803 212.716949,486.367767 214.778671,480.264313 
	C216.991211,473.714355 214.546509,467.191864 208.750122,462.625732 
	C207.240585,461.436646 205.918900,458.994598 205.887589,457.105225 
	C205.652939,442.944305 205.803818,428.777527 205.753876,414.612854 
	C205.708984,401.882141 210.162094,390.881073 218.171432,381.131378 
	C236.073257,359.339630 260.063080,356.903229 285.970825,359.765411 
	C285.970825,367.640564 285.970825,375.534027 285.970825,383.833832 
	C280.472107,383.833832 275.323059,383.765076 270.176331,383.845825 
	C248.840134,384.180542 231.719299,400.464050 231.563477,421.795410 
	C231.216522,469.286774 231.412445,516.782410 231.481476,564.276123 
	C231.492203,571.650146 235.659286,575.617676 243.085342,575.712524 
	C251.416260,575.818848 259.749695,575.767273 268.081787,575.734985 
	C292.400787,575.640747 308.881226,559.181580 308.917175,534.881958 
	C308.958832,506.718964 308.928223,478.555847 308.928986,450.392792 
	C308.929016,448.628632 308.928986,446.864471 308.928986,444.689362 
	C316.725464,444.689362 323.865173,444.752380 331.003479,444.678619 
	C365.142853,444.325928 393.570343,421.202423 401.135132,387.903442 
	C401.619812,385.769989 403.257019,383.503265 405.007721,382.121826 
	C412.122681,376.507568 413.542938,366.747070 407.901123,359.997437 
	C402.496338,353.531342 392.792877,352.735382 386.413116,358.234863 
	C379.692749,364.027832 379.188019,374.108154 385.815369,380.339661 
	C388.404449,382.774109 388.345947,384.910583 387.601013,387.794403 
	C381.729706,410.522430 362.832214,427.291138 337.994507,431.046204 
M576.678894,456.349396 
	C578.320374,454.252625 579.857605,452.063690 581.619385,450.073364 
	C599.353577,430.038147 622.631470,429.048615 646.864319,431.036438 
	C646.864319,439.055420 646.864319,446.931061 646.864319,455.214813 
	C641.352356,455.214813 636.213074,455.122284 631.078003,455.230927 
	C609.200989,455.693695 592.534973,472.328491 592.373840,494.160095 
	C592.202942,517.320435 592.295959,540.483032 592.350525,563.644470 
	C592.369446,571.670166 596.350647,575.647217 604.331909,575.717346 
	C613.329163,575.796448 622.329834,575.853455 631.325317,575.702820 
	C652.605225,575.346436 669.201050,558.860413 669.769592,537.528320 
	C669.947083,530.867676 669.794556,524.198608 669.836609,517.533691 
	C669.844666,516.271606 670.057861,515.010864 670.204468,513.450684 
	C678.740784,513.450684 686.894592,513.554993 695.045044,513.432617 
	C730.702148,512.897400 760.779663,482.597900 761.007141,446.978363 
	C761.095398,433.148621 761.096008,419.317230 760.970276,405.488098 
	C760.943848,402.577301 761.573303,400.720001 764.241150,398.991882 
	C770.097656,395.198212 772.202332,388.254944 770.092896,381.859039 
	C768.049866,375.664551 762.245972,371.551422 755.619324,371.601654 
	C749.021912,371.651672 743.265747,375.875183 741.309387,382.101318 
	C739.296265,388.508179 741.748779,394.919617 747.329041,399.321930 
	C748.848450,400.520599 750.279053,402.892181 750.309814,404.749329 
	C750.549683,419.242126 750.469299,433.740814 750.424988,448.237518 
	C750.388367,460.216919 746.179688,470.698517 738.776917,479.987823 
	C720.826843,502.512390 696.523438,505.381256 670.081177,502.195618 
	C670.081177,494.363251 670.081177,486.602753 670.081177,478.207794 
	C675.442139,478.207794 680.554504,478.274292 685.664612,478.196289 
	C707.605042,477.861481 724.548462,461.441772 724.657166,439.593231 
	C724.891846,392.438080 724.760681,345.280914 724.710083,298.124664 
	C724.701782,290.372620 720.694641,286.407440 712.988831,286.308167 
	C704.658691,286.200806 696.325989,286.254364 687.994629,286.286865 
	C663.757019,286.381409 647.281250,302.927856 647.255066,327.244965 
	C647.224792,355.405426 647.247375,383.565948 647.247009,411.726440 
	C647.247009,413.487610 647.247009,415.248779 647.247009,417.410889 
	C639.700989,417.410889 632.894104,417.345917 626.088806,417.421753 
	C590.639343,417.816895 562.908508,440.215088 554.898254,474.696716 
	C554.469849,476.540741 553.055542,478.520660 551.526489,479.682159 
	C544.162415,485.276215 542.528381,494.741486 547.995911,501.679199 
	C553.369019,508.497070 563.275208,509.456970 569.780029,503.790161 
	C576.583435,497.863190 576.599487,488.009705 570.178528,481.110352 
	C568.911316,479.748779 567.944275,476.852234 568.512024,475.260223 
	C570.734497,469.028198 573.627441,463.035217 576.678894,456.349396 
M3058.925781,488.495483 
	C3058.925781,493.852234 3058.925781,499.209015 3058.925781,504.565765 
	C3058.419189,504.699982 3057.912354,504.834198 3057.405762,504.968414 
	C3056.114990,503.378632 3054.734619,501.852997 3053.546631,500.189850 
	C3007.344238,435.506073 2961.161133,370.808411 2914.963135,306.121429 
	C2913.707031,304.362915 2912.506104,302.498749 2910.950439,301.033081 
	C2906.722900,297.050446 2900.133301,299.000946 2898.761719,304.641724 
	C2898.298340,306.547791 2898.376465,308.609894 2898.375977,310.600769 
	C2898.358887,382.763153 2898.361084,454.925507 2898.362793,527.087891 
	C2898.363037,534.815063 2900.650635,538.537720 2905.476318,538.699280 
	C2910.938477,538.882202 2913.389404,535.205627 2913.389648,526.804260 
	C2913.391357,463.641327 2913.388184,400.478424 2913.404053,337.315491 
	C2913.404297,335.519501 2913.601318,333.723602 2913.782715,330.631042 
	C2915.732422,333.257477 2916.738037,334.567200 2917.696777,335.910126 
	C2964.083252,400.873291 3010.464355,465.840332 3056.854248,530.800964 
	C3058.111328,532.561279 3059.127686,534.797424 3060.845703,535.848694 
	C3063.062256,537.205322 3066.301758,538.792969 3068.315186,538.075562 
	C3070.611084,537.257690 3072.391357,534.200989 3073.716064,531.749878 
	C3074.492432,530.313293 3073.984863,528.160461 3073.985107,526.329773 
	C3073.992188,471.666351 3073.990234,417.002960 3073.989990,362.339539 
	C3073.989990,344.507263 3074.005859,326.674957 3073.982910,308.842712 
	C3073.974609,302.405396 3071.433594,299.062714 3066.643066,299.013733 
	C3061.550293,298.961639 3058.989990,302.276276 3058.927002,309.007568 
	C3058.919189,309.840790 3058.925049,310.674133 3058.925293,311.507416 
	C3058.925293,370.170593 3058.925781,428.833801 3058.925781,488.495483 
M1087.106445,538.240173 
	C1149.872925,533.906067 1199.416382,479.292358 1197.652222,416.381378 
	C1195.810059,350.690948 1144.038940,299.694275 1078.299316,299.003326 
	C1055.636963,298.765137 1032.970337,298.939362 1010.305664,298.948608 
	C1009.035034,298.949127 1007.764526,299.163696 1006.455078,299.282166 
	C1006.455078,379.181824 1006.455078,458.738403 1006.455078,538.301880 
	C1033.272705,538.301880 1059.723755,538.301880 1087.106445,538.240173 
M1984.061279,397.900665 
	C1989.914551,343.848541 1950.488892,299.383636 1896.191162,298.984161 
	C1871.030762,298.799042 1845.868042,298.937073 1820.706299,298.935669 
	C1810.833374,298.935120 1809.232910,300.569336 1809.232422,310.667877 
	C1809.229004,382.820526 1809.229126,454.973145 1809.239014,527.125793 
	C1809.239258,528.954712 1809.148926,530.823853 1809.479004,532.604187 
	C1810.170898,536.337952 1812.609619,538.545410 1816.371582,538.640625 
	C1820.047363,538.733826 1822.840454,536.936951 1823.798218,533.206604 
	C1824.245361,531.465149 1824.232544,529.576782 1824.236084,527.754578 
	C1824.266968,511.924408 1824.247070,496.094116 1824.265015,480.263855 
	C1824.267090,478.501404 1824.413208,476.739105 1824.511353,474.558807 
	C1826.748901,474.558807 1828.548584,474.558868 1830.348389,474.558746 
	C1852.010864,474.557220 1873.674316,474.692810 1895.335449,474.525848 
	C1941.318848,474.171387 1976.817993,443.743103 1984.061279,397.900665 
M1300.764526,454.499451 
	C1300.764526,482.445526 1300.764526,510.391602 1300.764526,538.514648 
	C1302.693115,538.620300 1304.003174,538.754578 1305.313232,538.754883 
	C1353.633057,538.765076 1401.953003,538.764954 1450.272827,538.751770 
	C1451.599487,538.751404 1452.964355,538.763855 1454.245728,538.477051 
	C1458.217896,537.588074 1460.236084,534.968201 1460.110474,530.939392 
	C1459.983643,526.870972 1457.654175,524.504333 1453.699219,523.879211 
	C1452.070068,523.621704 1450.374756,523.757507 1448.709473,523.757324 
	C1406.554565,523.752502 1364.399780,523.753418 1322.244873,523.753357 
	C1320.284790,523.753357 1318.324707,523.753357 1315.789795,523.753357 
	C1315.789795,521.651123 1315.789917,520.025024 1315.789917,518.398926 
	C1315.789795,489.407013 1315.879883,460.414551 1315.690430,431.423859 
	C1315.662598,427.174408 1316.950684,426.174042 1321.022339,426.200287 
	C1347.513794,426.371307 1374.006958,426.292664 1400.499512,426.277954 
	C1402.328003,426.276917 1404.183594,426.303406 1405.979492,426.019531 
	C1410.100342,425.368134 1411.961182,422.630554 1411.972046,418.654358 
	C1411.982544,414.809387 1409.891846,412.394257 1406.172974,411.625000 
	C1404.402954,411.258850 1402.531494,411.299225 1400.705933,411.297943 
	C1374.380005,411.279388 1348.053955,411.285126 1321.728027,411.284973 
	C1319.948608,411.284973 1318.169312,411.284943 1316.093628,411.284943 
	C1316.093628,378.633942 1316.093628,346.584869 1316.093628,313.949951 
	C1318.084595,313.949951 1319.865479,313.949921 1321.646484,313.949921 
	C1363.968018,313.949829 1406.289429,313.952332 1448.610962,313.940979 
	C1450.439331,313.940460 1452.323242,314.070312 1454.085083,313.691803 
	C1458.254639,312.795959 1460.379272,310.012421 1460.092651,305.761688 
	C1459.818481,301.695435 1457.325439,299.509521 1453.358032,299.007477 
	C1452.208374,298.861969 1451.028564,298.938934 1449.862671,298.938843 
	C1401.876099,298.936096 1353.889404,298.933990 1305.902832,298.945496 
	C1304.301880,298.945862 1302.700928,299.087677 1300.764648,299.179413 
	C1300.764648,350.899567 1300.764648,402.199493 1300.764526,454.499451 
M1650.500000,298.943390 
	C1618.690796,298.943390 1586.881714,298.943390 1554.910889,298.943390 
	C1554.910889,379.042755 1554.910889,458.765869 1554.910889,538.562866 
	C1556.118408,538.644104 1556.943604,538.748108 1557.768677,538.748230 
	C1606.599731,538.755493 1655.430908,538.760071 1704.261963,538.727783 
	C1705.904297,538.726685 1708.118896,538.936096 1709.069336,538.016357 
	C1711.040771,536.108643 1713.451050,533.570068 1713.587402,531.171936 
	C1713.710327,529.009827 1711.449219,526.168152 1709.465820,524.612915 
	C1708.034790,523.490723 1705.334839,523.792053 1703.200562,523.790100 
	C1660.702515,523.751404 1618.204346,523.761108 1575.706299,523.760986 
	C1573.788086,523.760986 1571.869873,523.760925 1569.824463,523.760925 
	C1569.824463,490.983887 1569.824463,458.907104 1569.824463,426.278137 
	C1571.916870,426.278137 1573.701416,426.278168 1575.485840,426.278168 
	C1601.817993,426.278137 1628.150146,426.283417 1654.482300,426.266541 
	C1656.310181,426.265350 1658.169800,426.282471 1659.959473,425.972595 
	C1663.833130,425.301910 1665.625977,422.638428 1665.750610,418.919922 
	C1665.878906,415.094635 1663.858276,412.581970 1660.176514,411.692505 
	C1658.426758,411.269806 1656.541138,411.312073 1654.716797,411.310577 
	C1628.218018,411.288879 1601.719116,411.295532 1575.220337,411.295410 
	C1573.454224,411.295410 1571.688232,411.295380 1569.794556,411.295380 
	C1569.794556,378.546692 1569.794556,346.472534 1569.794556,313.942383 
	C1571.869507,313.942383 1573.665771,313.942413 1575.461914,313.942383 
	C1618.459961,313.941742 1661.458008,313.953888 1704.456055,313.926086 
	C1710.672119,313.922058 1713.992065,311.099823 1713.914307,306.153137 
	C1713.841064,301.490723 1710.600342,298.963959 1704.497559,298.955048 
	C1686.831665,298.929260 1669.165894,298.944366 1650.500000,298.943390 
M2739.498535,458.456329 
	C2743.829834,458.456696 2748.177734,458.692017 2752.487061,458.384827 
	C2756.082520,458.128510 2757.721924,459.552551 2759.080322,462.818451 
	C2768.483887,485.424377 2778.100342,507.941803 2787.666504,530.479858 
	C2788.380127,532.161255 2789.036621,533.924316 2790.075684,535.398499 
	C2792.239990,538.468811 2795.223877,539.583801 2798.804688,538.001587 
	C2802.462402,536.385437 2804.252930,533.639221 2803.071289,529.577393 
	C2802.422119,527.347168 2801.573730,525.163208 2800.666504,523.021484 
	C2776.694824,466.426910 2752.704834,409.840027 2728.714600,353.253357 
	C2721.888428,337.152557 2715.046143,321.058655 2708.224121,304.956085 
	C2706.756348,301.491028 2704.586426,298.932251 2700.469238,299.002014 
	C2696.555908,299.068298 2694.557617,301.595337 2693.239014,304.903473 
	C2692.991943,305.522064 2692.721191,306.131165 2692.456299,306.742432 
	C2661.077148,379.163452 2629.693848,451.582703 2598.336914,524.013428 
	C2597.481689,525.988159 2596.586914,528.038391 2596.280762,530.136719 
	C2595.785645,533.526917 2596.915527,536.400940 2600.309326,537.900879 
	C2603.860840,539.470337 2606.891357,538.599609 2609.115479,535.528870 
	C2610.270020,533.934387 2611.078125,532.059204 2611.869385,530.235718 
	C2621.545654,507.933380 2631.277588,485.654419 2640.752686,463.266693 
	C2642.274658,459.670685 2644.006104,458.322601 2648.042725,458.348999 
	C2678.193848,458.546417 2708.346680,458.456299 2739.498535,458.456329 
M2356.954346,501.639404 
	C2322.140381,472.438690 2308.960205,435.724823 2319.977783,391.408691 
	C2334.279541,333.884552 2398.534912,299.871704 2454.408203,319.517059 
	C2469.433594,324.800140 2482.598145,332.881256 2494.175293,343.761780 
	C2498.411133,347.742798 2502.880371,347.635437 2506.061035,344.046570 
	C2508.930176,340.809235 2508.463623,336.876129 2504.501465,333.094757 
	C2473.917725,303.907532 2437.518066,293.288177 2396.394043,301.624023 
	C2346.796631,311.677399 2310.070801,350.302673 2302.777832,400.187622 
	C2295.485840,450.065491 2313.551758,490.233612 2354.838867,518.547424 
	C2398.125977,548.232971 2454.083984,545.206482 2495.584473,512.545959 
	C2502.716309,506.933167 2508.716797,499.823334 2514.909180,493.100830 
	C2518.120850,489.614502 2517.682861,484.962616 2514.701660,482.331512 
	C2511.474365,479.483124 2506.899414,479.825836 2503.521729,483.231476 
	C2502.350830,484.412354 2501.295166,485.708771 2500.199707,486.963409 
	C2463.101318,529.442139 2402.519043,535.851440 2356.954346,501.639404 
M2211.231445,469.350311 
	C2211.010498,465.030670 2211.222656,460.637177 2210.500732,456.403046 
	C2204.473389,421.055511 2177.664795,397.382324 2141.721924,395.228302 
	C2136.785889,394.932495 2131.737549,394.277710 2127.026855,392.848572 
	C2108.912109,387.353149 2096.683838,367.766235 2099.419922,349.248779 
	C2102.292725,329.802643 2119.307861,314.288849 2138.431885,314.043274 
	C2153.539795,313.849213 2165.398438,320.177734 2174.033203,332.648163 
	C2177.197266,337.217682 2181.409668,338.087982 2185.140625,335.364960 
	C2188.466064,332.937714 2189.043457,328.394318 2186.156738,324.253723 
	C2183.785400,320.852509 2181.282471,317.449341 2178.336670,314.557770 
	C2160.982422,297.523865 2133.938232,294.020630 2112.690674,305.861023 
	C2090.734863,318.096100 2079.755615,343.054443 2085.514893,367.637756 
	C2091.049072,391.258057 2111.763184,408.281250 2136.370850,410.121429 
	C2144.265869,410.711792 2152.447998,411.665863 2159.816650,414.336304 
	C2186.609619,424.046265 2201.601318,453.332367 2194.541748,480.658264 
	C2187.257080,508.854156 2160.221680,527.088928 2131.746338,523.011658 
	C2104.532959,519.115051 2084.923584,497.126129 2083.061523,468.418640 
	C2082.675293,462.463837 2079.976562,459.500824 2075.092773,459.670166 
	C2070.278564,459.837097 2067.886230,462.835846 2068.007812,468.551636 
	C2068.825684,507.021088 2100.201416,538.239868 2138.550537,538.740967 
	C2177.352051,539.248047 2209.624512,508.829224 2211.231445,469.350311 
z"/>
<path fill="#F9F9F9" opacity="1.000000" stroke="none" 
	d="
M402.064331,509.027283 
	C404.184570,502.559509 408.325745,498.750000 414.691620,497.893677 
	C421.046570,497.038849 425.945496,499.648743 429.717255,504.863586 
	C430.739014,506.276276 432.684937,507.457306 434.412384,507.858307 
	C469.119019,515.914551 491.533203,543.856689 491.719604,579.509094 
	C491.754272,586.140625 491.724548,592.772461 491.724548,600.155029 
	C493.955780,600.155029 495.713745,600.154968 497.471741,600.154968 
	C525.462646,600.155762 553.453674,600.126526 581.444519,600.166382 
	C606.487671,600.202026 622.731262,616.445862 622.809570,641.459045 
	C622.834595,649.456421 622.869141,657.454407 622.794556,665.451172 
	C622.718994,673.554749 618.847412,677.593201 610.901367,677.600403 
	C563.750000,677.643311 516.597839,677.774292 469.447632,677.542236 
	C447.678558,677.435120 431.152222,660.339905 430.881226,638.483704 
	C430.819489,633.503052 430.872131,628.520874 430.872131,623.137451 
	C422.625488,623.137451 414.753967,623.137451 406.864929,623.137451 
	C403.724335,649.392273 406.664734,673.539185 428.908752,691.449707 
	C438.450012,699.132141 449.240875,703.336426 461.588898,703.312805 
	C475.584320,703.285950 489.580353,703.249084 503.574799,703.369507 
	C506.474701,703.394409 508.367523,702.772827 510.110992,700.109863 
	C513.946594,694.251404 520.882507,692.145813 527.246887,694.255676 
	C533.429749,696.305359 537.614441,702.179810 537.554504,708.725525 
	C537.494629,715.261047 533.190613,721.095520 527.004211,723.027466 
	C520.598145,725.028015 514.263000,722.566528 509.771667,717.024292 
	C508.473114,715.421936 505.852539,714.062134 503.811249,714.023987 
	C489.820618,713.762268 475.822144,713.972900 461.827576,713.860657 
	C426.248962,713.575256 396.036896,683.280762 395.710449,647.617310 
	C395.636169,639.505371 395.699524,631.392212 395.699524,622.730103 
	C388.307098,622.730103 381.521271,622.744141 374.735504,622.727600 
	C349.768372,622.666687 333.411987,606.349060 333.334045,581.413696 
	C333.308533,573.249756 333.245636,565.084412 333.358337,556.921997 
	C333.461578,549.445007 337.383789,545.344604 344.767273,545.315308 
	C368.592438,545.220764 392.423981,544.966614 416.242096,545.391296 
	C437.308350,545.766846 453.496277,562.689087 453.859283,583.789001 
	C453.928070,587.786560 454.028625,591.793701 453.831177,595.782471 
	C453.678345,598.870422 454.444458,600.345215 457.930634,600.220825 
	C464.552979,599.984436 471.189728,600.152344 477.757904,600.152344 
	C482.025208,566.699158 474.557343,534.172852 435.648102,521.717712 
	C432.226318,520.622437 429.673065,520.676208 426.890503,523.756165 
	C422.573395,528.534607 415.485138,529.174805 409.829224,526.243896 
	C403.718018,523.077087 401.131531,517.534363 402.064331,509.027283 
z"/>
<path fill="#F9F9F9" opacity="1.000000" stroke="none" 
	d="
M561.999878,316.805176 
	C554.667725,316.803070 547.834534,316.877930 541.003601,316.784668 
	C519.559814,316.491882 502.746460,299.788055 502.288391,278.321228 
	C502.175751,273.042175 502.271606,267.758667 502.271606,262.188416 
	C493.926727,262.188416 486.175842,262.188416 477.829346,262.188416 
	C477.470917,279.475769 475.811005,296.774567 485.159210,312.652039 
	C493.318085,326.509491 505.003632,335.737152 520.439026,340.313324 
	C523.878296,341.332977 526.340088,341.319519 529.211182,338.339081 
	C535.268127,332.051483 545.379333,332.857605 550.953186,339.432739 
	C556.407043,345.866333 555.538757,355.522583 549.022400,360.905914 
	C542.396301,366.379944 532.758118,365.063568 527.208130,358.269196 
	C525.690430,356.411194 523.356995,354.576965 521.096069,354.065369 
	C488.429596,346.673248 465.376801,318.868652 464.506866,285.337646 
	C464.309296,277.722443 464.477753,270.097778 464.477753,261.885895 
	C462.111084,261.885895 460.329681,261.885925 458.548248,261.885864 
	C430.386475,261.885132 402.224670,261.913635 374.062927,261.874664 
	C350.082123,261.841461 333.476715,245.316757 333.340729,221.401733 
	C333.293365,213.070129 333.262115,204.737213 333.355499,196.406372 
	C333.445068,188.419327 337.395966,184.433884 345.448181,184.425797 
	C392.439941,184.378601 439.432465,184.260071 486.423370,184.470535 
	C508.544800,184.569611 524.995789,201.530640 525.261658,223.754150 
	C525.320984,228.712860 525.270386,233.672897 525.270386,238.946777 
	C533.576477,238.946777 541.326233,238.946777 549.067078,238.946777 
	C554.897827,202.845261 542.080383,168.721695 503.677368,159.736938 
	C495.420197,157.805084 486.436798,158.886124 477.785248,158.757095 
	C469.288635,158.630386 460.787750,158.799301 452.290619,158.689819 
	C449.587891,158.654984 447.791626,159.266342 446.147095,161.776566 
	C442.253021,167.720413 435.514404,169.860321 429.078094,167.817276 
	C422.883575,165.850983 418.642517,160.019821 418.633392,153.456619 
	C418.624268,146.881577 422.813843,141.074738 429.021912,139.057968 
	C435.462311,136.965714 442.225037,139.056488 446.099854,145.017014 
	C447.868103,147.737000 449.860718,148.195374 452.703552,148.175720 
	C466.367188,148.081253 480.032074,148.084259 493.696106,148.146057 
	C529.925476,148.309891 560.134094,178.455276 560.471069,214.770477 
	C560.544861,222.725037 560.481873,230.680847 560.481873,239.277649 
	C567.473938,239.277649 573.916321,239.272369 580.358704,239.278580 
	C606.757507,239.304016 622.761353,255.231949 622.812378,281.539978 
	C622.827576,289.371918 622.890381,297.204926 622.789673,305.035614 
	C622.690979,312.706482 618.647888,316.749603 610.991455,316.781708 
	C594.827820,316.849518 578.663818,316.804138 561.999878,316.805176 
z"/>
<path fill="#F9F9F9" opacity="1.000000" stroke="none" 
	d="
M338.442627,430.989563 
	C362.832214,427.291138 381.729706,410.522430 387.601013,387.794403 
	C388.345947,384.910583 388.404449,382.774109 385.815369,380.339661 
	C379.188019,374.108154 379.692749,364.027832 386.413116,358.234863 
	C392.792877,352.735382 402.496338,353.531342 407.901123,359.997437 
	C413.542938,366.747070 412.122681,376.507568 405.007721,382.121826 
	C403.257019,383.503265 401.619812,385.769989 401.135132,387.903442 
	C393.570343,421.202423 365.142853,444.325928 331.003479,444.678619 
	C323.865173,444.752380 316.725464,444.689362 308.928986,444.689362 
	C308.928986,446.864471 308.929016,448.628632 308.928986,450.392792 
	C308.928223,478.555847 308.958832,506.718964 308.917175,534.881958 
	C308.881226,559.181580 292.400787,575.640747 268.081787,575.734985 
	C259.749695,575.767273 251.416260,575.818848 243.085342,575.712524 
	C235.659286,575.617676 231.492203,571.650146 231.481476,564.276123 
	C231.412445,516.782410 231.216522,469.286774 231.563477,421.795410 
	C231.719299,400.464050 248.840134,384.180542 270.176331,383.845825 
	C275.323059,383.765076 280.472107,383.833832 285.970825,383.833832 
	C285.970825,375.534027 285.970825,367.640564 285.970825,359.765411 
	C260.063080,356.903229 236.073257,359.339630 218.171432,381.131378 
	C210.162094,390.881073 205.708984,401.882141 205.753876,414.612854 
	C205.803818,428.777527 205.652939,442.944305 205.887589,457.105225 
	C205.918900,458.994598 207.240585,461.436646 208.750122,462.625732 
	C214.546509,467.191864 216.991211,473.714355 214.778671,480.264313 
	C212.716949,486.367767 206.670792,490.635803 200.237762,490.528900 
	C193.743378,490.420959 187.938019,486.062897 186.011261,479.849060 
	C184.011368,473.399323 186.192963,466.707642 192.238647,462.878235 
	C194.866013,461.214050 195.196625,459.320160 195.184982,456.699615 
	C195.123535,442.868317 195.096741,429.036285 195.171524,415.205109 
	C195.365952,379.245697 225.552963,348.987549 261.507721,348.686066 
	C269.492279,348.619141 277.477905,348.676270 285.855835,348.676270 
	C286.035095,347.126678 286.296631,345.873566 286.305664,344.618591 
	C286.352509,338.119751 286.230286,331.618347 286.358765,325.121643 
	C286.787567,303.436279 303.105499,286.880066 324.729767,286.330170 
	C333.889374,286.097229 343.061127,286.187958 352.224792,286.314545 
	C359.856171,286.419983 363.805023,290.510071 363.821686,298.266083 
	C363.871826,321.596313 363.973053,344.927765 363.794434,368.256744 
	C363.630402,389.672333 346.659180,406.488129 325.221558,406.808807 
	C320.070770,406.885864 314.917847,406.820251 309.348663,406.820251 
	C309.348663,414.996307 309.348663,422.878815 309.348663,431.046204 
	C318.865356,431.046204 328.429932,431.046204 338.442627,430.989563 
z"/>
<path fill="#FAFAFA" opacity="1.000000" stroke="none" 
	d="
M576.475098,456.651398 
	C573.627441,463.035217 570.734497,469.028198 568.512024,475.260223 
	C567.944275,476.852234 568.911316,479.748779 570.178528,481.110352 
	C576.599487,488.009705 576.583435,497.863190 569.780029,503.790161 
	C563.275208,509.456970 553.369019,508.497070 547.995911,501.679199 
	C542.528381,494.741486 544.162415,485.276215 551.526489,479.682159 
	C553.055542,478.520660 554.469849,476.540741 554.898254,474.696716 
	C562.908508,440.215088 590.639343,417.816895 626.088806,417.421753 
	C632.894104,417.345917 639.700989,417.410889 647.247009,417.410889 
	C647.247009,415.248779 647.247009,413.487610 647.247009,411.726440 
	C647.247375,383.565948 647.224792,355.405426 647.255066,327.244965 
	C647.281250,302.927856 663.757019,286.381409 687.994629,286.286865 
	C696.325989,286.254364 704.658691,286.200806 712.988831,286.308167 
	C720.694641,286.407440 724.701782,290.372620 724.710083,298.124664 
	C724.760681,345.280914 724.891846,392.438080 724.657166,439.593231 
	C724.548462,461.441772 707.605042,477.861481 685.664612,478.196289 
	C680.554504,478.274292 675.442139,478.207794 670.081177,478.207794 
	C670.081177,486.602753 670.081177,494.363251 670.081177,502.195618 
	C696.523438,505.381256 720.826843,502.512390 738.776917,479.987823 
	C746.179688,470.698517 750.388367,460.216919 750.424988,448.237518 
	C750.469299,433.740814 750.549683,419.242126 750.309814,404.749329 
	C750.279053,402.892181 748.848450,400.520599 747.329041,399.321930 
	C741.748779,394.919617 739.296265,388.508179 741.309387,382.101318 
	C743.265747,375.875183 749.021912,371.651672 755.619324,371.601654 
	C762.245972,371.551422 768.049866,375.664551 770.092896,381.859039 
	C772.202332,388.254944 770.097656,395.198212 764.241150,398.991882 
	C761.573303,400.720001 760.943848,402.577301 760.970276,405.488098 
	C761.096008,419.317230 761.095398,433.148621 761.007141,446.978363 
	C760.779663,482.597900 730.702148,512.897400 695.045044,513.432617 
	C686.894592,513.554993 678.740784,513.450684 670.204468,513.450684 
	C670.057861,515.010864 669.844666,516.271606 669.836609,517.533691 
	C669.794556,524.198608 669.947083,530.867676 669.769592,537.528320 
	C669.201050,558.860413 652.605225,575.346436 631.325317,575.702820 
	C622.329834,575.853455 613.329163,575.796448 604.331909,575.717346 
	C596.350647,575.647217 592.369446,571.670166 592.350525,563.644470 
	C592.295959,540.483032 592.202942,517.320435 592.373840,494.160095 
	C592.534973,472.328491 609.200989,455.693695 631.078003,455.230927 
	C636.213074,455.122284 641.352356,455.214813 646.864319,455.214813 
	C646.864319,446.931061 646.864319,439.055420 646.864319,431.036438 
	C622.631470,429.048615 599.353577,430.038147 581.619385,450.073364 
	C579.857605,452.063690 578.320374,454.252625 576.475098,456.651398 
z"/>
<path fill="#F4F4F4" opacity="1.000000" stroke="none" 
	d="
M3058.925781,487.996216 
	C3058.925781,428.833801 3058.925293,370.170593 3058.925293,311.507416 
	C3058.925049,310.674133 3058.919189,309.840790 3058.927002,309.007568 
	C3058.989990,302.276276 3061.550293,298.961639 3066.643066,299.013733 
	C3071.433594,299.062714 3073.974609,302.405396 3073.982910,308.842712 
	C3074.005859,326.674957 3073.989990,344.507263 3073.989990,362.339539 
	C3073.990234,417.002960 3073.992188,471.666351 3073.985107,526.329773 
	C3073.984863,528.160461 3074.492432,530.313293 3073.716064,531.749878 
	C3072.391357,534.200989 3070.611084,537.257690 3068.315186,538.075562 
	C3066.301758,538.792969 3063.062256,537.205322 3060.845703,535.848694 
	C3059.127686,534.797424 3058.111328,532.561279 3056.854248,530.800964 
	C3010.464355,465.840332 2964.083252,400.873291 2917.696777,335.910126 
	C2916.738037,334.567200 2915.732422,333.257477 2913.782715,330.631042 
	C2913.601318,333.723602 2913.404297,335.519501 2913.404053,337.315491 
	C2913.388184,400.478424 2913.391357,463.641327 2913.389648,526.804260 
	C2913.389404,535.205627 2910.938477,538.882202 2905.476318,538.699280 
	C2900.650635,538.537720 2898.363037,534.815063 2898.362793,527.087891 
	C2898.361084,454.925507 2898.358887,382.763153 2898.375977,310.600769 
	C2898.376465,308.609894 2898.298340,306.547791 2898.761719,304.641724 
	C2900.133301,299.000946 2906.722900,297.050446 2910.950439,301.033081 
	C2912.506104,302.498749 2913.707031,304.362915 2914.963135,306.121429 
	C2961.161133,370.808411 3007.344238,435.506073 3053.546631,500.189850 
	C3054.734619,501.852997 3056.114990,503.378632 3057.405762,504.968414 
	C3057.912354,504.834198 3058.419189,504.699982 3058.925781,504.565765 
	C3058.925781,499.209015 3058.925781,493.852234 3058.925781,487.996216 
z"/>
<path fill="#F5F5F5" opacity="1.000000" stroke="none" 
	d="
M1086.640625,538.270996 
	C1059.723755,538.301880 1033.272705,538.301880 1006.455078,538.301880 
	C1006.455078,458.738403 1006.455078,379.181824 1006.455078,299.282166 
	C1007.764526,299.163696 1009.035034,298.949127 1010.305664,298.948608 
	C1032.970337,298.939362 1055.636963,298.765137 1078.299316,299.003326 
	C1144.038940,299.694275 1195.810059,350.690948 1197.652222,416.381378 
	C1199.416382,479.292358 1149.872925,533.906067 1086.640625,538.270996 
M1021.104370,380.500000 
	C1021.104370,428.084991 1021.104370,475.670013 1021.104370,523.476868 
	C1022.518311,523.606934 1023.315186,523.744141 1024.112061,523.744202 
	C1042.270874,523.744751 1060.461548,524.374023 1078.576538,523.477173 
	C1089.429321,522.939819 1100.647705,521.424133 1110.869263,517.919983 
	C1160.700684,500.836975 1188.690796,453.957092 1181.130005,401.757843 
	C1175.008911,359.499023 1139.028442,321.557709 1096.615234,316.257629 
	C1072.148560,313.200195 1047.116089,314.667419 1022.337891,314.123138 
	C1022.075928,314.117401 1021.806458,314.450439 1021.104370,314.912109 
	C1021.104370,336.256622 1021.104370,357.878296 1021.104370,380.500000 
z"/>
<path fill="#F5F5F5" opacity="1.000000" stroke="none" 
	d="
M1983.991699,398.342468 
	C1976.817993,443.743103 1941.318848,474.171387 1895.335449,474.525848 
	C1873.674316,474.692810 1852.010864,474.557220 1830.348389,474.558746 
	C1828.548584,474.558868 1826.748901,474.558807 1824.511353,474.558807 
	C1824.413208,476.739105 1824.267090,478.501404 1824.265015,480.263855 
	C1824.247070,496.094116 1824.266968,511.924408 1824.236084,527.754578 
	C1824.232544,529.576782 1824.245361,531.465149 1823.798218,533.206604 
	C1822.840454,536.936951 1820.047363,538.733826 1816.371582,538.640625 
	C1812.609619,538.545410 1810.170898,536.337952 1809.479004,532.604187 
	C1809.148926,530.823853 1809.239258,528.954712 1809.239014,527.125793 
	C1809.229126,454.973145 1809.229004,382.820526 1809.232422,310.667877 
	C1809.232910,300.569336 1810.833374,298.935120 1820.706299,298.935669 
	C1845.868042,298.937073 1871.030762,298.799042 1896.191162,298.984161 
	C1950.488892,299.383636 1989.914551,343.848541 1983.991699,398.342468 
M1824.246460,366.499451 
	C1824.246460,397.391846 1824.246460,428.284210 1824.246460,458.741974 
	C1852.413452,458.741974 1879.841431,460.532501 1906.935303,458.288483 
	C1940.751831,455.487671 1967.404785,425.421234 1969.505127,391.865295 
	C1972.115356,350.164734 1940.158691,314.956848 1898.359375,314.083344 
	C1874.548462,313.585785 1850.719238,313.962128 1826.898193,313.968414 
	C1826.114990,313.968628 1825.331787,314.224945 1824.246338,314.414703 
	C1824.246338,331.544800 1824.246338,348.522095 1824.246460,366.499451 
z"/>
<path fill="#F6F6F6" opacity="1.000000" stroke="none" 
	d="
M1300.764648,453.999451 
	C1300.764648,402.199493 1300.764648,350.899567 1300.764648,299.179413 
	C1302.700928,299.087677 1304.301880,298.945862 1305.902832,298.945496 
	C1353.889404,298.933990 1401.876099,298.936096 1449.862671,298.938843 
	C1451.028564,298.938934 1452.208374,298.861969 1453.358032,299.007477 
	C1457.325439,299.509521 1459.818481,301.695435 1460.092651,305.761688 
	C1460.379272,310.012421 1458.254639,312.795959 1454.085083,313.691803 
	C1452.323242,314.070312 1450.439331,313.940460 1448.610962,313.940979 
	C1406.289429,313.952332 1363.968018,313.949829 1321.646484,313.949921 
	C1319.865479,313.949921 1318.084595,313.949951 1316.093628,313.949951 
	C1316.093628,346.584869 1316.093628,378.633942 1316.093628,411.284943 
	C1318.169312,411.284943 1319.948608,411.284973 1321.728027,411.284973 
	C1348.053955,411.285126 1374.380005,411.279388 1400.705933,411.297943 
	C1402.531494,411.299225 1404.402954,411.258850 1406.172974,411.625000 
	C1409.891846,412.394257 1411.982544,414.809387 1411.972046,418.654358 
	C1411.961182,422.630554 1410.100342,425.368134 1405.979492,426.019531 
	C1404.183594,426.303406 1402.328003,426.276917 1400.499512,426.277954 
	C1374.006958,426.292664 1347.513794,426.371307 1321.022339,426.200287 
	C1316.950684,426.174042 1315.662598,427.174408 1315.690430,431.423859 
	C1315.879883,460.414551 1315.789795,489.407013 1315.789917,518.398926 
	C1315.789917,520.025024 1315.789795,521.651123 1315.789795,523.753357 
	C1318.324707,523.753357 1320.284790,523.753357 1322.244873,523.753357 
	C1364.399780,523.753418 1406.554565,523.752502 1448.709473,523.757324 
	C1450.374756,523.757507 1452.070068,523.621704 1453.699219,523.879211 
	C1457.654175,524.504333 1459.983643,526.870972 1460.110474,530.939392 
	C1460.236084,534.968201 1458.217896,537.588074 1454.245728,538.477051 
	C1452.964355,538.763855 1451.599487,538.751404 1450.272827,538.751770 
	C1401.953003,538.764954 1353.633057,538.765076 1305.313232,538.754883 
	C1304.003174,538.754578 1302.693115,538.620300 1300.764526,538.514648 
	C1300.764526,510.391602 1300.764526,482.445526 1300.764648,453.999451 
z"/>
<path fill="#F8F8F8" opacity="1.000000" stroke="none" 
	d="
M1651.000000,298.943390 
	C1669.165894,298.944366 1686.831665,298.929260 1704.497559,298.955048 
	C1710.600342,298.963959 1713.841064,301.490723 1713.914307,306.153137 
	C1713.992065,311.099823 1710.672119,313.922058 1704.456055,313.926086 
	C1661.458008,313.953888 1618.459961,313.941742 1575.461914,313.942383 
	C1573.665771,313.942413 1571.869507,313.942383 1569.794556,313.942383 
	C1569.794556,346.472534 1569.794556,378.546692 1569.794556,411.295380 
	C1571.688232,411.295380 1573.454224,411.295410 1575.220337,411.295410 
	C1601.719116,411.295532 1628.218018,411.288879 1654.716797,411.310577 
	C1656.541138,411.312073 1658.426758,411.269806 1660.176514,411.692505 
	C1663.858276,412.581970 1665.878906,415.094635 1665.750610,418.919922 
	C1665.625977,422.638428 1663.833130,425.301910 1659.959473,425.972595 
	C1658.169800,426.282471 1656.310181,426.265350 1654.482300,426.266541 
	C1628.150146,426.283417 1601.817993,426.278137 1575.485840,426.278168 
	C1573.701416,426.278168 1571.916870,426.278137 1569.824463,426.278137 
	C1569.824463,458.907104 1569.824463,490.983887 1569.824463,523.760925 
	C1571.869873,523.760925 1573.788086,523.760986 1575.706299,523.760986 
	C1618.204346,523.761108 1660.702515,523.751404 1703.200562,523.790100 
	C1705.334839,523.792053 1708.034790,523.490723 1709.465820,524.612915 
	C1711.449219,526.168152 1713.710327,529.009827 1713.587402,531.171936 
	C1713.451050,533.570068 1711.040771,536.108643 1709.069336,538.016357 
	C1708.118896,538.936096 1705.904297,538.726685 1704.261963,538.727783 
	C1655.430908,538.760071 1606.599731,538.755493 1557.768677,538.748230 
	C1556.943604,538.748108 1556.118408,538.644104 1554.910889,538.562866 
	C1554.910889,458.765869 1554.910889,379.042755 1554.910889,298.943390 
	C1586.881714,298.943390 1618.690796,298.943390 1651.000000,298.943390 
z"/>
<path fill="#F6F6F6" opacity="1.000000" stroke="none" 
	d="
M2738.998779,458.456299 
	C2708.346680,458.456299 2678.193848,458.546417 2648.042725,458.348999 
	C2644.006104,458.322601 2642.274658,459.670685 2640.752686,463.266693 
	C2631.277588,485.654419 2621.545654,507.933380 2611.869385,530.235718 
	C2611.078125,532.059204 2610.270020,533.934387 2609.115479,535.528870 
	C2606.891357,538.599609 2603.860840,539.470337 2600.309326,537.900879 
	C2596.915527,536.400940 2595.785645,533.526917 2596.280762,530.136719 
	C2596.586914,528.038391 2597.481689,525.988159 2598.336914,524.013428 
	C2629.693848,451.582703 2661.077148,379.163452 2692.456299,306.742432 
	C2692.721191,306.131165 2692.991943,305.522064 2693.239014,304.903473 
	C2694.557617,301.595337 2696.555908,299.068298 2700.469238,299.002014 
	C2704.586426,298.932251 2706.756348,301.491028 2708.224121,304.956085 
	C2715.046143,321.058655 2721.888428,337.152557 2728.714600,353.253357 
	C2752.704834,409.840027 2776.694824,466.426910 2800.666504,523.021484 
	C2801.573730,525.163208 2802.422119,527.347168 2803.071289,529.577393 
	C2804.252930,533.639221 2802.462402,536.385437 2798.804688,538.001587 
	C2795.223877,539.583801 2792.239990,538.468811 2790.075684,535.398499 
	C2789.036621,533.924316 2788.380127,532.161255 2787.666504,530.479858 
	C2778.100342,507.941803 2768.483887,485.424377 2759.080322,462.818451 
	C2757.721924,459.552551 2756.082520,458.128510 2752.487061,458.384827 
	C2748.177734,458.692017 2743.829834,458.456696 2738.998779,458.456299 
M2666.968994,403.498840 
	C2661.332275,416.573029 2655.695801,429.647217 2649.909912,443.067505 
	C2683.808350,443.067505 2716.813232,443.067505 2750.557861,443.067505 
	C2733.951172,403.900360 2717.613281,365.367371 2700.734863,325.558685 
	C2689.200439,352.186432 2678.237549,377.495178 2666.968994,403.498840 
z"/>
<path fill="#F5F5F5" opacity="1.000000" stroke="none" 
	d="
M2357.249512,501.846832 
	C2402.519043,535.851440 2463.101318,529.442139 2500.199707,486.963409 
	C2501.295166,485.708771 2502.350830,484.412354 2503.521729,483.231476 
	C2506.899414,479.825836 2511.474365,479.483124 2514.701660,482.331512 
	C2517.682861,484.962616 2518.120850,489.614502 2514.909180,493.100830 
	C2508.716797,499.823334 2502.716309,506.933167 2495.584473,512.545959 
	C2454.083984,545.206482 2398.125977,548.232971 2354.838867,518.547424 
	C2313.551758,490.233612 2295.485840,450.065491 2302.777832,400.187622 
	C2310.070801,350.302673 2346.796631,311.677399 2396.394043,301.624023 
	C2437.518066,293.288177 2473.917725,303.907532 2504.501465,333.094757 
	C2508.463623,336.876129 2508.930176,340.809235 2506.061035,344.046570 
	C2502.880371,347.635437 2498.411133,347.742798 2494.175293,343.761780 
	C2482.598145,332.881256 2469.433594,324.800140 2454.408203,319.517059 
	C2398.534912,299.871704 2334.279541,333.884552 2319.977783,391.408691 
	C2308.960205,435.724823 2322.140381,472.438690 2357.249512,501.846832 
z"/>
<path fill="#F5F5F5" opacity="1.000000" stroke="none" 
	d="
M2211.210449,469.811951 
	C2209.624512,508.829224 2177.352051,539.248047 2138.550537,538.740967 
	C2100.201416,538.239868 2068.825684,507.021088 2068.007812,468.551636 
	C2067.886230,462.835846 2070.278564,459.837097 2075.092773,459.670166 
	C2079.976562,459.500824 2082.675293,462.463837 2083.061523,468.418640 
	C2084.923584,497.126129 2104.532959,519.115051 2131.746338,523.011658 
	C2160.221680,527.088928 2187.257080,508.854156 2194.541748,480.658264 
	C2201.601318,453.332367 2186.609619,424.046265 2159.816650,414.336304 
	C2152.447998,411.665863 2144.265869,410.711792 2136.370850,410.121429 
	C2111.763184,408.281250 2091.049072,391.258057 2085.514893,367.637756 
	C2079.755615,343.054443 2090.734863,318.096100 2112.690674,305.861023 
	C2133.938232,294.020630 2160.982422,297.523865 2178.336670,314.557770 
	C2181.282471,317.449341 2183.785400,320.852509 2186.156738,324.253723 
	C2189.043457,328.394318 2188.466064,332.937714 2185.140625,335.364960 
	C2181.409668,338.087982 2177.197266,337.217682 2174.033203,332.648163 
	C2165.398438,320.177734 2153.539795,313.849213 2138.431885,314.043274 
	C2119.307861,314.288849 2102.292725,329.802643 2099.419922,349.248779 
	C2096.683838,367.766235 2108.912109,387.353149 2127.026855,392.848572 
	C2131.737549,394.277710 2136.785889,394.932495 2141.721924,395.228302 
	C2177.664795,397.382324 2204.473389,421.055511 2210.500732,456.403046 
	C2211.222656,460.637177 2211.010498,465.030670 2211.210449,469.811951 
z"/>
<path fill="#020202" opacity="1.000000" stroke="none" 
	d="
M1021.104370,380.000000 
	C1021.104370,357.878296 1021.104370,336.256622 1021.104370,314.912109 
	C1021.806458,314.450439 1022.075928,314.117401 1022.337891,314.123138 
	C1047.116089,314.667419 1072.148560,313.200195 1096.615234,316.257629 
	C1139.028442,321.557709 1175.008911,359.499023 1181.130005,401.757843 
	C1188.690796,453.957092 1160.700684,500.836975 1110.869263,517.919983 
	C1100.647705,521.424133 1089.429321,522.939819 1078.576538,523.477173 
	C1060.461548,524.374023 1042.270874,523.744751 1024.112061,523.744202 
	C1023.315186,523.744141 1022.518311,523.606934 1021.104370,523.476868 
	C1021.104370,475.670013 1021.104370,428.084991 1021.104370,380.000000 
z"/>
<path fill="#020202" opacity="1.000000" stroke="none" 
	d="
M1824.246338,365.999451 
	C1824.246338,348.522095 1824.246338,331.544800 1824.246338,314.414703 
	C1825.331787,314.224945 1826.114990,313.968628 1826.898193,313.968414 
	C1850.719238,313.962128 1874.548462,313.585785 1898.359375,314.083344 
	C1940.158691,314.956848 1972.115356,350.164734 1969.505127,391.865295 
	C1967.404785,425.421234 1940.751831,455.487671 1906.935303,458.288483 
	C1879.841431,460.532501 1852.413452,458.741974 1824.246460,458.741974 
	C1824.246460,428.284210 1824.246460,397.391846 1824.246338,365.999451 
z"/>
<path fill="#050505" opacity="1.000000" stroke="none" 
	d="
M2667.121826,403.151367 
	C2678.237549,377.495178 2689.200439,352.186432 2700.734863,325.558685 
	C2717.613281,365.367371 2733.951172,403.900360 2750.557861,443.067505 
	C2716.813232,443.067505 2683.808350,443.067505 2649.909912,443.067505 
	C2655.695801,429.647217 2661.332275,416.573029 2667.121826,403.151367 
z"/>
</svg>