<?xml version="1.0" encoding="UTF-8"?>
<svg xmlns="http://www.w3.org/2000/svg" viewBox="0 0 385.51 73.52">
  <defs>
    <style>
      .cls-1 {
        isolation: isolate;
      }
    </style>
  </defs>
  <g id="DeepScan" class="cls-1">
    <g>
      <path d="M95.2,54.95V9.7h15.13c5.21,0,9.55.94,12.99,2.81,3.45,1.87,6,4.5,7.66,7.89,1.66,3.38,2.49,7.36,2.49,11.93s-.83,8.54-2.49,11.93c-1.66,3.38-4.21,6.01-7.66,7.89-3.45,1.87-7.78,2.81-12.99,2.81h-15.13ZM103.92,47.45h5.95c3.66,0,6.57-.6,8.73-1.81,2.15-1.21,3.69-2.94,4.59-5.2.91-2.26,1.36-4.97,1.36-8.11s-.45-5.91-1.36-8.18c-.9-2.26-2.44-4-4.59-5.2-2.16-1.21-5.06-1.81-8.73-1.81h-5.95v30.32Z"/>
      <path d="M152.47,55.72c-3.28,0-6.17-.71-8.69-2.13s-4.48-3.39-5.88-5.92c-1.4-2.52-2.1-5.42-2.1-8.69s.7-6.4,2.1-8.99c1.4-2.59,3.35-4.63,5.85-6.14,2.5-1.51,5.41-2.26,8.73-2.26s6.05.71,8.47,2.13c2.41,1.42,4.29,3.33,5.62,5.72,1.34,2.39,2,5.14,2,8.24,0,.43-.01.92-.03,1.46-.02.54-.05,1.09-.1,1.65h-26.38v-5.37h17.71c-.13-2.02-.87-3.66-2.23-4.91-1.36-1.25-3.03-1.87-5.01-1.87-1.51,0-2.88.36-4.1,1.07-1.23.71-2.21,1.75-2.94,3.1-.73,1.36-1.1,3.07-1.1,5.14v1.87c0,1.77.33,3.31,1,4.62.67,1.32,1.6,2.34,2.81,3.07,1.21.73,2.61,1.1,4.2,1.1s2.96-.33,3.98-1c1.01-.67,1.8-1.56,2.36-2.68h8.86c-.56,2.03-1.56,3.87-3.01,5.53-1.44,1.66-3.19,2.95-5.24,3.88-2.05.93-4.34,1.39-6.88,1.39Z"/>
      <path d="M187.51,55.72c-3.28,0-6.17-.71-8.69-2.13s-4.48-3.39-5.88-5.92c-1.4-2.52-2.1-5.42-2.1-8.69s.7-6.4,2.1-8.99c1.4-2.59,3.35-4.63,5.85-6.14,2.5-1.51,5.41-2.26,8.73-2.26s6.05.71,8.47,2.13c2.41,1.42,4.29,3.33,5.62,5.72,1.33,2.39,2,5.14,2,8.24,0,.43-.01.92-.03,1.46-.02.54-.05,1.09-.1,1.65h-26.37v-5.37h17.71c-.13-2.02-.87-3.66-2.23-4.91-1.36-1.25-3.03-1.87-5.01-1.87-1.51,0-2.88.36-4.1,1.07-1.23.71-2.21,1.75-2.94,3.1-.73,1.36-1.1,3.07-1.1,5.14v1.87c0,1.77.33,3.31,1,4.62.67,1.32,1.6,2.34,2.81,3.07,1.21.73,2.61,1.1,4.2,1.1s2.96-.33,3.98-1c1.01-.67,1.8-1.56,2.36-2.68h8.86c-.56,2.03-1.56,3.87-3.01,5.53-1.44,1.66-3.19,2.95-5.24,3.88-2.05.93-4.34,1.39-6.88,1.39Z"/>
      <path d="M206.9,69.17V22.37h7.76l.97,4.46c.65-.9,1.46-1.76,2.42-2.55.97-.8,2.11-1.44,3.43-1.94,1.31-.5,2.83-.74,4.56-.74,3.1,0,5.82.74,8.14,2.23s4.17,3.52,5.53,6.11c1.36,2.59,2.04,5.52,2.04,8.79s-.69,6.2-2.07,8.76c-1.38,2.57-3.23,4.58-5.56,6.04-2.33,1.46-5,2.2-8.02,2.2-2.37,0-4.43-.44-6.17-1.33-1.75-.88-3.18-2.1-4.3-3.65v18.42h-8.73ZM224.09,48.09c1.68,0,3.18-.39,4.49-1.16,1.31-.78,2.35-1.86,3.1-3.26.75-1.4,1.13-3.03,1.13-4.88s-.38-3.57-1.13-5.01c-.75-1.44-1.79-2.56-3.1-3.36-1.31-.8-2.81-1.2-4.49-1.2s-3.18.4-4.49,1.2c-1.31.8-2.34,1.91-3.07,3.33-.73,1.42-1.1,3.08-1.1,4.98s.37,3.48,1.1,4.88c.73,1.4,1.76,2.5,3.07,3.3,1.31.8,2.81,1.2,4.49,1.2Z"/>
      <path d="M261.14,55.72c-3.28,0-6.2-.56-8.76-1.68-2.56-1.12-4.58-2.76-6.04-4.91-1.47-2.15-2.24-4.76-2.33-7.82h9.24c.04,1.34.39,2.54,1.03,3.62s1.54,1.93,2.68,2.55c1.14.63,2.51.94,4.1.94,1.38,0,2.58-.23,3.59-.68,1.01-.45,1.81-1.09,2.39-1.91.58-.82.87-1.79.87-2.91,0-1.29-.32-2.37-.97-3.23-.65-.86-1.52-1.59-2.62-2.2-1.1-.6-2.37-1.15-3.81-1.65-1.44-.5-2.94-1-4.49-1.52-3.62-1.21-6.36-2.78-8.21-4.72-1.85-1.94-2.78-4.5-2.78-7.69,0-2.71.65-5.04,1.94-6.98,1.29-1.94,3.1-3.43,5.43-4.46,2.33-1.03,4.98-1.55,7.95-1.55s5.74.53,8.05,1.58c2.31,1.06,4.14,2.58,5.5,4.56,1.36,1.98,2.08,4.31,2.17,6.98h-9.37c-.04-.99-.33-1.93-.87-2.81-.54-.88-1.28-1.59-2.23-2.13-.95-.54-2.07-.81-3.36-.81-1.12-.04-2.14.13-3.07.52-.93.39-1.65.96-2.17,1.71-.52.75-.78,1.69-.78,2.81s.26,1.98.78,2.71c.52.73,1.25,1.37,2.2,1.91.95.54,2.07,1.03,3.36,1.49s2.69.92,4.2,1.39c2.28.78,4.36,1.69,6.24,2.75,1.88,1.06,3.37,2.42,4.49,4.1,1.12,1.68,1.68,3.9,1.68,6.66,0,2.37-.61,4.57-1.84,6.59-1.23,2.03-3.03,3.66-5.4,4.91-2.37,1.25-5.3,1.87-8.79,1.87Z"/>
      <path d="M296.3,55.72c-3.28,0-6.18-.73-8.73-2.2-2.54-1.46-4.52-3.47-5.95-6.01-1.42-2.54-2.13-5.43-2.13-8.66,0-3.45.71-6.45,2.13-9.02,1.42-2.56,3.4-4.58,5.95-6.04,2.54-1.46,5.45-2.2,8.73-2.2,4.18,0,7.69,1.09,10.54,3.26,2.84,2.18,4.65,5.18,5.43,9.02h-9.24c-.39-1.46-1.19-2.64-2.39-3.52-1.21-.88-2.67-1.33-4.4-1.33-1.51,0-2.86.39-4.04,1.16-1.19.78-2.11,1.88-2.78,3.3-.67,1.42-1,3.15-1,5.17,0,1.47.19,2.8.58,4.01.39,1.21.93,2.22,1.62,3.04.69.82,1.51,1.45,2.46,1.91.95.45,2,.68,3.17.68s2.14-.19,3.07-.58c.93-.39,1.71-.95,2.36-1.68.65-.73,1.1-1.59,1.36-2.59h9.24c-.78,3.71-2.6,6.68-5.46,8.92-2.87,2.24-6.37,3.36-10.5,3.36Z"/>
      <path d="M326.88,55.72c-2.67,0-4.89-.44-6.66-1.33-1.77-.88-3.09-2.07-3.98-3.55-.88-1.49-1.33-3.14-1.33-4.95,0-2.03.51-3.79,1.52-5.3,1.01-1.51,2.55-2.68,4.62-3.52,2.07-.84,4.7-1.26,7.89-1.26h7.95c0-1.64-.21-2.97-.61-4.01s-1.08-1.81-2-2.33-2.14-.78-3.65-.78c-1.64,0-3.03.35-4.17,1.03-1.14.69-1.84,1.79-2.1,3.3h-8.47c.21-2.37.98-4.4,2.29-6.08,1.31-1.68,3.06-2.99,5.24-3.94,2.18-.95,4.6-1.42,7.27-1.42,3.06,0,5.72.51,7.98,1.52,2.26,1.01,3.99,2.5,5.17,4.46,1.19,1.96,1.78,4.34,1.78,7.14v20.23h-7.3l-.97-4.98c-.47.86-1.05,1.64-1.71,2.33-.67.69-1.45,1.29-2.33,1.81-.88.52-1.84.92-2.88,1.2s-2.22.42-3.56.42ZM329.01,49c1.08,0,2.06-.2,2.94-.61.88-.41,1.65-.98,2.29-1.71.65-.73,1.16-1.55,1.55-2.46.39-.91.65-1.9.78-2.97v-.07h-6.66c-1.38,0-2.49.16-3.33.49-.84.32-1.45.79-1.84,1.39-.39.6-.58,1.29-.58,2.07,0,.82.19,1.52.58,2.1.39.58.96,1.02,1.71,1.33.75.3,1.6.45,2.55.45Z"/>
      <path d="M349.89,54.95V22.37h7.69l.58,5.37c1.03-1.9,2.47-3.39,4.3-4.49,1.83-1.1,4.02-1.65,6.56-1.65,2.71,0,5,.57,6.85,1.71,1.85,1.14,3.28,2.79,4.27,4.95.99,2.16,1.49,4.78,1.49,7.89v18.81h-8.73v-18.04c0-2.54-.56-4.5-1.68-5.88-1.12-1.38-2.82-2.07-5.11-2.07-1.42,0-2.71.35-3.85,1.03-1.14.69-2.04,1.67-2.68,2.94-.65,1.27-.97,2.83-.97,4.69v17.32h-8.73Z"/>
    </g>
  </g>
  <g id="svgviewer-output_图像" data-name="svgviewer-output 图像">
    <path d="M45.16,4.38c1.33,1.68,2.03,3.53,1.96,5.65-.03.86,0,1.72,0,2.69.26,0,.49,0,.71,0,1.14.05,2.3-.04,3.4.18,2.17.44,3.66,2.38,3.71,4.59.02,1.18.02,2.36,0,3.54-.01.88-.53,1.4-1.4,1.41-3.01,0-6.01.03-9.02,0-2.57-.04-4.65-2.17-4.71-4.74-.01-.68,0-1.37,0-2.09h-3.02c-.81,3.64.58,7.28,3.5,9.01.63.37,1.36.6,2.07.83.19.06.53-.05.69-.2.85-.81,2.07-.83,2.83.01.73.81.64,2.04-.21,2.73-.87.71-2.11.51-2.8-.42-.15-.19-.4-.37-.63-.43-4.27-.97-7.12-4.46-7.18-8.83-.01-.88,0-1.76,0-2.74-.27,0-.5,0-.72,0-3.52,0-7.04,0-10.55,0-3.15,0-5.19-2.05-5.19-5.22,0-1,0-2,0-3.01,0-.99.5-1.5,1.48-1.5,5.92,0,11.83-.01,17.75,0,2.68,0,4.78,2.08,4.87,4.76.02.68,0,1.37,0,2.09h3.03c.37-3.31.02-6.36-2.79-8.6-1.19-.95-2.54-1.48-4.07-1.48-1.81,0-3.62-.01-5.42.01-.22,0-.5.18-.64.36-.54.72-1.36,1.03-2.18.77-.81-.25-1.33-.97-1.32-1.82,0-.84.55-1.57,1.35-1.81.8-.24,1.65.04,2.11.78.2.33.43.38.77.38,1.65-.01,3.3.02,4.95,0,2.72-.04,4.92,1.02,6.68,3.12Z"/>
    <path d="M33.57,54.79c.08,1.08.15,2.11.22,3.18h2.97c.82-3.53-.6-7.24-3.46-8.99-.47-.28-.98-.49-1.49-.7-.57-.23-1.06-.32-1.61.24-.74.75-2.02.51-2.65-.34-.62-.82-.46-2,.35-2.64.83-.65,2.05-.5,2.67.37.22.32.46.47.83.55,4.17.94,7.04,4.49,7.1,8.78.01.9,0,1.8,0,2.76.27,0,.48,0,.69,0,3.54,0,7.08,0,10.61,0,3.07,0,5.14,2.07,5.15,5.14,0,1.04,0,2.08,0,3.12,0,.94-.52,1.46-1.47,1.46-5.94,0-11.87.02-17.81,0-2.7-.01-4.79-2.16-4.82-4.87,0-.65,0-1.29,0-2.02-.98,0-1.92-.01-2.85.02-.09,0-.25.23-.25.35,0,1.1-.04,2.2.03,3.3.19,2.77,2.98,6.58,7.09,6.46,1.73-.05,3.46-.01,5.19,0,.32,0,.52-.06.71-.37.45-.74,1.31-1.03,2.1-.8.79.23,1.36.97,1.38,1.8.01.82-.52,1.57-1.32,1.83-.82.27-1.68,0-2.16-.77-.19-.3-.39-.38-.71-.38-1.73.01-3.46-.03-5.19.01-4.97.11-8.55-4.43-8.46-8.51.02-.96,0-1.92,0-2.95-1.03,0-2.01,0-2.98,0-2.34-.03-4.37-1.61-4.71-3.92-.22-1.54-.12-3.13-.09-4.7.01-.62.6-1.08,1.28-1.08,3.09-.01,6.17-.05,9.26.02,2.09.05,3.72,1.47,4.41,3.64Z"/>
    <path d="M55.18,36.72c-3.44.13-6.22,2.32-7.05,5.5-.1.37-.09.63.23.93.82.77.76,2.04-.08,2.77-.82.71-2.06.6-2.73-.25-.67-.85-.49-2.05.37-2.73.23-.18.45-.49.51-.77.95-4.16,4.52-7.05,8.8-7.09.9,0,1.8,0,2.77,0,0-.27,0-.48,0-.69,0-3.56,0-7.12,0-10.67,0-3,2.08-5.07,5.08-5.09,1.06,0,2.12,0,3.18,0,.95.01,1.46.52,1.46,1.46,0,5.94.03,11.87,0,17.81-.02,2.69-2.15,4.74-4.83,4.81-.66.02-1.33,0-2.03,0v3.03c3,.27,5.85.15,8.1-2.22,1.29-1.36,2.02-2.92,1.99-4.82-.02-1.73,0-3.46,0-5.19,0-.31-.04-.53-.35-.72-.77-.47-1.05-1.34-.8-2.15.25-.79.99-1.33,1.83-1.33.84,0,1.55.55,1.8,1.36.25.83-.06,1.6-.8,2.16-.18.13-.33.42-.34.65-.04,1-.1,2.01,0,3.01.75,7.29-4.21,11.33-10.63,10.64-.25-.03-.5,0-.83,0,0,1.03,0,2.01,0,2.98-.03,2.64-2.09,4.75-4.74,4.84-.63.02-1.26,0-1.89,0-.59,0-1.18.02-1.77,0-.78-.03-1.31-.53-1.31-1.31-.01-3.09-.06-6.17.02-9.26.07-2.52,2.22-4.5,4.76-4.56.67-.02,1.33,0,2.05,0v-3.09c-.9,0-1.81,0-2.78,0Z"/>
    <path d="M12.68,30.66c0-.86,0-1.67.02-2.47,0-.33-.12-.45-.45-.44-1,.02-2.01-.03-3.01.02-3.55.18-6.67,3.47-6.68,7.02,0,1.77-.01,3.54.01,5.31,0,.22.16.51.34.64.73.55,1.05,1.34.8,2.17-.24.79-.98,1.35-1.81,1.35-.82,0-1.59-.55-1.82-1.34-.25-.83.04-1.69.8-2.15.32-.19.36-.4.36-.71,0-1.77-.01-3.54,0-5.31.02-4.42,3.8-8.24,8.23-8.3,1.04-.02,2.08,0,3.15,0,.02-.2.05-.35.05-.5,0-.85-.01-1.69,0-2.54.06-2.63,2.11-4.7,4.73-4.77,1.18-.03,2.36-.02,3.54,0,.95,0,1.44.51,1.44,1.48,0,2.91.01,5.82,0,8.73-.01,2.75-2.09,4.84-4.84,4.9-.65.01-1.29,0-1.99,0v3.08c2.16.04,4.35.24,6.34-.94,1.74-1.03,2.9-2.49,3.46-4.44.12-.43.12-.73-.26-1.08-.78-.74-.68-2.02.14-2.72.8-.69,2.01-.58,2.69.23.69.84.57,2.08-.32,2.71-.34.24-.48.5-.57.89-.89,4.03-4.47,6.94-8.6,7.02-.94.02-1.88,0-2.93,0,0,.26,0,.48,0,.71,0,3.46,0,6.92,0,10.38,0,3.37-1.99,5.37-5.34,5.37-.96,0-1.93,0-2.89,0-.99,0-1.48-.5-1.48-1.49,0-5.9-.02-11.79,0-17.69,0-2.81,2.14-4.88,4.96-4.91.63,0,1.26-.08,1.9-.18Z"/>
  </g>
</svg>