<?xml version="1.0" encoding="UTF-8"?>
<svg xmlns="http://www.w3.org/2000/svg" viewBox="0 0 373.87 73.52">
  <defs>
    <style>
      .cls-1 {
        isolation: isolate;
      }
    </style>
  </defs>
  <g id="DeepScan" class="cls-1">
    <g>
      <path d="M94.42,54.95V9.7h10.86c7.28,0,12.69,2.02,16.23,6.04,3.53,4.03,5.3,9.56,5.3,16.58s-1.77,12.55-5.3,16.58c-3.53,4.03-8.94,6.04-16.23,6.04h-10.86ZM101.27,48.61h3.75c5.26,0,9.05-1.48,11.38-4.43,2.33-2.95,3.49-6.91,3.49-11.86s-1.16-8.91-3.49-11.86c-2.33-2.95-6.12-4.43-11.38-4.43h-3.75v32.58Z"/>
      <path d="M145.42,55.72c-3.1,0-5.84-.7-8.21-2.1-2.37-1.4-4.22-3.35-5.56-5.85-1.34-2.5-2-5.41-2-8.73s.66-6.31,1.97-8.86c1.31-2.54,3.17-4.52,5.56-5.95,2.39-1.42,5.16-2.13,8.31-2.13s5.77.7,8.02,2.1c2.24,1.4,3.98,3.26,5.2,5.59,1.23,2.33,1.84,4.89,1.84,7.69v1.39c0,.5-.02,1.04-.06,1.65h-24.11c.21,2.97,1.18,5.23,2.91,6.76,1.72,1.53,3.75,2.29,6.08,2.29,2.03,0,3.63-.42,4.82-1.26,1.19-.84,2.06-1.99,2.62-3.46h6.92c-.78,3.06-2.39,5.63-4.85,7.72-2.46,2.09-5.6,3.13-9.44,3.13ZM145.42,28.06c-2.11,0-3.99.64-5.62,1.91-1.64,1.27-2.69,3.05-3.17,5.33h17.07c-.17-2.15-1.01-3.9-2.52-5.24-1.51-1.34-3.43-2-5.75-2Z"/>
      <path d="M180.33,55.72c-3.1,0-5.84-.7-8.21-2.1-2.37-1.4-4.22-3.35-5.56-5.85-1.34-2.5-2-5.41-2-8.73s.66-6.31,1.97-8.86c1.31-2.54,3.17-4.52,5.56-5.95,2.39-1.42,5.16-2.13,8.31-2.13s5.77.7,8.02,2.1c2.24,1.4,3.98,3.26,5.2,5.59s1.84,4.89,1.84,7.69v1.39c0,.5-.02,1.04-.06,1.65h-24.11c.21,2.97,1.18,5.23,2.91,6.76,1.72,1.53,3.75,2.29,6.08,2.29,2.03,0,3.63-.42,4.82-1.26,1.19-.84,2.06-1.99,2.62-3.46h6.92c-.78,3.06-2.39,5.63-4.85,7.72-2.46,2.09-5.6,3.13-9.44,3.13ZM180.33,28.06c-2.11,0-3.99.64-5.62,1.91-1.64,1.27-2.69,3.05-3.17,5.33h17.07c-.17-2.15-1.01-3.9-2.52-5.24-1.51-1.34-3.43-2-5.75-2Z"/>
      <path d="M199.92,69.17V22.88h5.95l.52,4.91h.39c.86-1.59,2.17-2.94,3.91-4.04,1.75-1.1,3.82-1.65,6.24-1.65s4.78.64,6.85,1.91c2.07,1.27,3.72,3.15,4.94,5.62,1.23,2.48,1.84,5.57,1.84,9.28s-.64,6.75-1.91,9.24c-1.27,2.5-2.98,4.39-5.14,5.66-2.16,1.27-4.57,1.91-7.24,1.91-2.37,0-4.35-.47-5.95-1.42-1.59-.95-2.78-2.03-3.56-3.23v18.1h-6.85ZM215.11,49.19c2.41,0,4.43-.86,6.04-2.59,1.62-1.72,2.42-4.31,2.42-7.76s-.81-6.01-2.42-7.69c-1.62-1.68-3.63-2.52-6.04-2.52s-4.49.85-6.11,2.55c-1.62,1.7-2.42,4.28-2.42,7.73s.81,5.97,2.42,7.69,3.65,2.59,6.11,2.59Z"/>
      <path d="M250.21,55.72c-3.19,0-5.98-.58-8.37-1.75-2.39-1.16-4.27-2.82-5.62-4.98-1.36-2.15-2.06-4.72-2.1-7.69h7.24c.04,2.28.83,4.23,2.36,5.85,1.53,1.62,3.67,2.42,6.43,2.42,2.54,0,4.52-.59,5.95-1.78,1.42-1.18,2.13-2.72,2.13-4.62,0-1.59-.42-2.92-1.26-3.97-.84-1.06-2.14-2-3.91-2.84-1.77-.84-4.05-1.71-6.85-2.62-3.75-1.21-6.51-2.88-8.27-5.01-1.77-2.13-2.65-4.75-2.65-7.85,0-3.58,1.29-6.46,3.88-8.66,2.58-2.2,6.14-3.3,10.67-3.3s7.93,1.13,10.6,3.39c2.67,2.26,4.05,5.4,4.14,9.41h-7.3c0-1.08-.3-2.12-.91-3.14-.6-1.01-1.46-1.85-2.58-2.52-1.12-.67-2.5-1-4.14-1-2.03-.04-3.73.44-5.11,1.45-1.38,1.01-2.07,2.38-2.07,4.1,0,2.11.84,3.76,2.52,4.95,1.68,1.19,4.42,2.4,8.21,3.65,2.37.78,4.47,1.71,6.3,2.81,1.83,1.1,3.27,2.5,4.33,4.2,1.06,1.7,1.58,3.87,1.58,6.5,0,2.41-.6,4.6-1.81,6.56-1.21,1.96-2.94,3.52-5.2,4.69-2.26,1.16-4.99,1.75-8.18,1.75Z"/>
      <path d="M285.12,55.72c-2.97,0-5.63-.69-7.98-2.07-2.35-1.38-4.19-3.33-5.53-5.85-1.34-2.52-2-5.48-2-8.89s.68-6.36,2.04-8.86c1.36-2.5,3.2-4.45,5.53-5.85,2.33-1.4,4.98-2.1,7.95-2.1,4.09,0,7.4,1.02,9.92,3.07,2.52,2.05,4.13,4.86,4.82,8.44h-7.17c-.43-1.55-1.3-2.78-2.62-3.68-1.32-.91-2.98-1.36-5.01-1.36-1.47,0-2.86.39-4.17,1.16-1.32.78-2.37,1.93-3.17,3.46-.8,1.53-1.2,3.44-1.2,5.72s.4,4.14,1.2,5.69c.8,1.55,1.85,2.73,3.17,3.52,1.31.8,2.7,1.2,4.17,1.2,2.07,0,3.73-.45,4.98-1.36,1.25-.91,2.13-2.15,2.65-3.75h7.17c-.86,3.53-2.54,6.33-5.04,8.4-2.5,2.07-5.73,3.1-9.7,3.1Z"/>
      <path d="M316.66,55.72c-2.54,0-4.68-.44-6.4-1.33s-3.02-2.07-3.88-3.55c-.86-1.49-1.29-3.11-1.29-4.88,0-3.15,1.15-5.6,3.46-7.37,2.31-1.77,5.57-2.65,9.79-2.65h8.27v-.71c0-4.83-2.24-7.24-6.72-7.24-1.85,0-3.42.4-4.69,1.2-1.27.8-2.12,2.08-2.55,3.85h-6.85c.34-3.36,1.8-6.02,4.36-7.98,2.56-1.96,5.81-2.94,9.73-2.94,4.74,0,8.19,1.16,10.34,3.49,2.15,2.33,3.23,5.54,3.23,9.63v19.72h-5.82l-.58-4.72h-.45c-.95,1.51-2.13,2.8-3.56,3.88-1.42,1.08-3.56,1.62-6.4,1.62ZM317.96,49.97c2.8,0,4.9-.85,6.3-2.55,1.4-1.7,2.17-3.87,2.29-6.5h-7.5c-2.46,0-4.19.4-5.2,1.2-1.01.8-1.52,1.91-1.52,3.33s.51,2.53,1.52,3.33c1.01.8,2.38,1.2,4.11,1.2Z"/>
      <path d="M340.13,54.95V22.88h5.95l.58,4.78h.32c.86-1.55,2.2-2.87,4.01-3.94,1.81-1.08,3.9-1.62,6.27-1.62,3.92,0,6.87,1.19,8.86,3.56,1.98,2.37,2.97,5.86,2.97,10.47v18.81h-6.85v-17.97c0-2.67-.56-4.74-1.68-6.21-1.12-1.46-2.89-2.2-5.3-2.2s-4.34.8-5.92,2.39c-1.57,1.59-2.36,3.9-2.36,6.92v17.07h-6.85Z"/>
    </g>
  </g>
  <g id="svgviewer-output_图像" data-name="svgviewer-output 图像">
    <path d="M45.16,4.38c1.33,1.68,2.03,3.53,1.96,5.65-.03.86,0,1.72,0,2.69.26,0,.49,0,.71,0,1.14.05,2.3-.04,3.4.18,2.17.44,3.66,2.38,3.71,4.59.02,1.18.02,2.36,0,3.54-.01.88-.53,1.4-1.4,1.41-3.01,0-6.01.03-9.02,0-2.57-.04-4.65-2.17-4.71-4.74-.01-.68,0-1.37,0-2.09h-3.02c-.81,3.64.58,7.28,3.5,9.01.63.37,1.36.6,2.07.83.19.06.53-.05.69-.2.85-.81,2.07-.83,2.83.01.73.81.64,2.04-.21,2.73-.87.71-2.11.51-2.8-.42-.15-.19-.4-.37-.63-.43-4.27-.97-7.12-4.46-7.18-8.83-.01-.88,0-1.76,0-2.74-.27,0-.5,0-.72,0-3.52,0-7.04,0-10.55,0-3.15,0-5.19-2.05-5.19-5.22,0-1,0-2,0-3.01,0-.99.5-1.5,1.48-1.5,5.92,0,11.83-.01,17.75,0,2.68,0,4.78,2.08,4.87,4.76.02.68,0,1.37,0,2.09h3.03c.37-3.31.02-6.36-2.79-8.6-1.19-.95-2.54-1.48-4.07-1.48-1.81,0-3.62-.01-5.42.01-.22,0-.5.18-.64.36-.54.72-1.36,1.03-2.18.77-.81-.25-1.33-.97-1.32-1.82,0-.84.55-1.57,1.35-1.81.8-.24,1.65.04,2.11.78.2.33.43.38.77.38,1.65-.01,3.3.02,4.95,0,2.72-.04,4.92,1.02,6.68,3.12Z"/>
    <path d="M33.57,54.79c.08,1.08.15,2.11.22,3.18h2.97c.82-3.53-.6-7.24-3.46-8.99-.47-.28-.98-.49-1.49-.7-.57-.23-1.06-.32-1.61.24-.74.75-2.02.51-2.65-.34-.62-.82-.46-2,.35-2.64.83-.65,2.05-.5,2.67.37.22.32.46.47.83.55,4.17.94,7.04,4.49,7.1,8.78.01.9,0,1.8,0,2.76.27,0,.48,0,.69,0,3.54,0,7.08,0,10.61,0,3.07,0,5.14,2.07,5.15,5.14,0,1.04,0,2.08,0,3.12,0,.94-.52,1.46-1.47,1.46-5.94,0-11.87.02-17.81,0-2.7-.01-4.79-2.16-4.82-4.87,0-.65,0-1.29,0-2.02-.98,0-1.92-.01-2.85.02-.09,0-.25.23-.25.35,0,1.1-.04,2.2.03,3.3.19,2.77,2.98,6.58,7.09,6.46,1.73-.05,3.46-.01,5.19,0,.32,0,.52-.06.71-.37.45-.74,1.31-1.03,2.1-.8.79.23,1.36.97,1.38,1.8.01.82-.52,1.57-1.32,1.83-.82.27-1.68,0-2.16-.77-.19-.3-.39-.38-.71-.38-1.73.01-3.46-.03-5.19.01-4.97.11-8.55-4.43-8.46-8.51.02-.96,0-1.92,0-2.95-1.03,0-2.01,0-2.98,0-2.34-.03-4.37-1.61-4.71-3.92-.22-1.54-.12-3.13-.09-4.7.01-.62.6-1.08,1.28-1.08,3.09-.01,6.17-.05,9.26.02,2.09.05,3.72,1.47,4.41,3.64Z"/>
    <path d="M55.18,36.72c-3.44.13-6.22,2.32-7.05,5.5-.1.37-.09.63.23.93.82.77.76,2.04-.08,2.77-.82.71-2.06.6-2.73-.25-.67-.85-.49-2.05.37-2.73.23-.18.45-.49.51-.77.95-4.16,4.52-7.05,8.8-7.09.9,0,1.8,0,2.77,0,0-.27,0-.48,0-.69,0-3.56,0-7.12,0-10.67,0-3,2.08-5.07,5.08-5.09,1.06,0,2.12,0,3.18,0,.95.01,1.46.52,1.46,1.46,0,5.94.03,11.87,0,17.81-.02,2.69-2.15,4.74-4.83,4.81-.66.02-1.33,0-2.03,0v3.03c3,.27,5.85.15,8.1-2.22,1.29-1.36,2.02-2.92,1.99-4.82-.02-1.73,0-3.46,0-5.19,0-.31-.04-.53-.35-.72-.77-.47-1.05-1.34-.8-2.15.25-.79.99-1.33,1.83-1.33.84,0,1.55.55,1.8,1.36.25.83-.06,1.6-.8,2.16-.18.13-.33.42-.34.65-.04,1-.1,2.01,0,3.01.75,7.29-4.21,11.33-10.63,10.64-.25-.03-.5,0-.83,0,0,1.03,0,2.01,0,2.98-.03,2.64-2.09,4.75-4.74,4.84-.63.02-1.26,0-1.89,0-.59,0-1.18.02-1.77,0-.78-.03-1.31-.53-1.31-1.31-.01-3.09-.06-6.17.02-9.26.07-2.52,2.22-4.5,4.76-4.56.67-.02,1.33,0,2.05,0v-3.09c-.9,0-1.81,0-2.78,0Z"/>
    <path d="M12.68,30.66c0-.86,0-1.67.02-2.47,0-.33-.12-.45-.45-.44-1,.02-2.01-.03-3.01.02-3.55.18-6.67,3.47-6.68,7.02,0,1.77-.01,3.54.01,5.31,0,.22.16.51.34.64.73.55,1.05,1.34.8,2.17-.24.79-.98,1.35-1.81,1.35-.82,0-1.59-.55-1.82-1.34-.25-.83.04-1.69.8-2.15.32-.19.36-.4.36-.71,0-1.77-.01-3.54,0-5.31.02-4.42,3.8-8.24,8.23-8.3,1.04-.02,2.08,0,3.15,0,.02-.2.05-.35.05-.5,0-.85-.01-1.69,0-2.54.06-2.63,2.11-4.7,4.73-4.77,1.18-.03,2.36-.02,3.54,0,.95,0,1.44.51,1.44,1.48,0,2.91.01,5.82,0,8.73-.01,2.75-2.09,4.84-4.84,4.9-.65.01-1.29,0-1.99,0v3.08c2.16.04,4.35.24,6.34-.94,1.74-1.03,2.9-2.49,3.46-4.44.12-.43.12-.73-.26-1.08-.78-.74-.68-2.02.14-2.72.8-.69,2.01-.58,2.69.23.69.84.57,2.08-.32,2.71-.34.24-.48.5-.57.89-.89,4.03-4.47,6.94-8.6,7.02-.94.02-1.88,0-2.93,0,0,.26,0,.48,0,.71,0,3.46,0,6.92,0,10.38,0,3.37-1.99,5.37-5.34,5.37-.96,0-1.93,0-2.89,0-.99,0-1.48-.5-1.48-1.49,0-5.9-.02-11.79,0-17.69,0-2.81,2.14-4.88,4.96-4.91.63,0,1.26-.08,1.9-.18Z"/>
  </g>
</svg>