<?xml version="1.0" encoding="UTF-8"?>
<svg id="_图层_1" data-name="图层_1" xmlns="http://www.w3.org/2000/svg" version="1.1" viewBox="0 0 382.01 74.49">
  <!-- Generator: Adobe Illustrator 30.2.0, SVG Export Plug-In . SVG Version: 2.1.1 Build 105)  -->
  <defs>
    <style>
      .st0 {
        isolation: isolate;
      }

      .st1 {
        fill-rule: evenodd;
      }
    </style>
  </defs>
  <g id="DeepScan" class="st0">
    <g id="DeepScan-2">
      <path class="st1" d="M109.87,6.45h-11.4v47.49h11.4c7.64,0,13.32-2.11,17.03-6.34s5.56-10.03,5.56-17.4-1.86-13.17-5.56-17.4c-3.71-4.23-9.39-6.34-17.03-6.34h0ZM121.54,42.64c-2.44,3.1-6.42,4.65-11.94,4.65h-3.94V13.09h3.94c5.52,0,9.5,1.55,11.94,4.65,2.44,3.1,3.66,7.25,3.66,12.45s-1.22,9.35-3.66,12.45ZM159.81,21.68c-2.35-1.47-5.16-2.21-8.41-2.21s-6.21.75-8.72,2.24-4.46,3.57-5.83,6.24c-1.38,2.67-2.07,5.77-2.07,9.3s.7,6.54,2.1,9.16c1.4,2.62,3.35,4.67,5.83,6.14,2.49,1.47,5.36,2.21,8.62,2.21,4.03,0,7.33-1.1,9.91-3.29,2.58-2.19,4.27-4.9,5.09-8.11h-7.26c-.59,1.54-1.5,2.75-2.75,3.63-1.24.88-2.93,1.32-5.05,1.32-2.44,0-4.57-.8-6.38-2.41s-2.83-3.97-3.05-7.09h25.31c.04-.63.07-1.21.07-1.73v-1.46c0-2.94-.64-5.63-1.93-8.07s-3.11-4.4-5.46-5.87h-.02ZM142.1,33.31c.5-2.4,1.6-4.26,3.32-5.6,1.72-1.33,3.69-2,5.9-2,2.44,0,4.45.7,6.04,2.1,1.58,1.4,2.46,3.23,2.65,5.5h-17.91,0ZM195.77,21.68c-2.35-1.47-5.16-2.21-8.41-2.21s-6.21.75-8.72,2.24-4.46,3.57-5.83,6.24c-1.38,2.67-2.07,5.77-2.07,9.3s.7,6.54,2.1,9.16c1.4,2.62,3.35,4.67,5.83,6.14,2.49,1.47,5.36,2.21,8.62,2.21,4.03,0,7.33-1.1,9.91-3.29,2.58-2.19,4.27-4.9,5.09-8.11h-7.26c-.59,1.54-1.5,2.75-2.75,3.63-1.24.88-2.93,1.32-5.05,1.32-2.44,0-4.57-.8-6.38-2.41s-2.83-3.97-3.05-7.09h25.31c.04-.63.07-1.21.07-1.73v-1.46c0-2.94-.64-5.63-1.93-8.07-1.29-2.44-3.11-4.4-5.46-5.87h-.02ZM178.06,33.31c.5-2.4,1.61-4.26,3.32-5.6,1.72-1.33,3.69-2,5.9-2,2.44,0,4.45.7,6.04,2.1,1.58,1.4,2.46,3.23,2.65,5.5h-17.91,0ZM232.2,21.47c-2.17-1.33-4.57-2-7.19-2s-4.72.58-6.55,1.73-3.2,2.57-4.1,4.24h-.41l-.54-5.16h-6.24v48.58h7.19v-19c.81,1.27,2.06,2.4,3.73,3.39,1.67.99,3.75,1.49,6.24,1.49,2.8,0,5.34-.67,7.6-2,2.26-1.33,4.06-3.31,5.39-5.94,1.33-2.62,2-5.86,2-9.7s-.64-7.13-1.93-9.74c-1.29-2.6-3.02-4.57-5.19-5.9h0ZM229.45,45.19c-1.7,1.81-3.81,2.71-6.34,2.71s-4.72-.9-6.41-2.71c-1.7-1.81-2.54-4.5-2.54-8.07s.85-6.32,2.54-8.11c1.7-1.79,3.83-2.68,6.41-2.68s4.65.88,6.34,2.65c1.7,1.76,2.54,4.46,2.54,8.07s-.85,6.33-2.54,8.14ZM269.01,29.89c-1.92-1.15-4.13-2.14-6.62-2.95-3.98-1.31-6.85-2.59-8.62-3.83-1.76-1.24-2.65-2.97-2.65-5.19,0-1.81.72-3.24,2.17-4.31,1.45-1.06,3.23-1.57,5.36-1.53,1.72,0,3.17.35,4.34,1.05,1.18.7,2.08,1.58,2.71,2.65.63,1.06.95,2.16.95,3.29h7.67c-.09-4.21-1.54-7.5-4.34-9.87-2.81-2.37-6.51-3.56-11.13-3.56s-8.48,1.15-11.19,3.46c-2.71,2.31-4.07,5.34-4.07,9.09,0,3.26.93,6,2.78,8.24s4.75,3.99,8.68,5.26c2.94.95,5.34,1.87,7.19,2.75s3.22,1.88,4.1,2.99,1.32,2.5,1.32,4.17c0,1.99-.75,3.61-2.24,4.85-1.49,1.24-3.57,1.87-6.24,1.87-2.9,0-5.15-.85-6.75-2.54-1.61-1.7-2.43-3.74-2.48-6.14h-7.6c.04,3.12.78,5.81,2.21,8.07,1.42,2.26,3.39,4,5.9,5.22s5.44,1.83,8.79,1.83,6.21-.61,8.58-1.83,4.19-2.86,5.46-4.92,1.9-4.35,1.9-6.89c0-2.76-.55-5.03-1.66-6.82-1.11-1.79-2.62-3.26-4.55-4.41h.03ZM290.79,27.48c1.38-.81,2.84-1.22,4.38-1.22,2.13,0,3.88.47,5.26,1.42s2.3,2.24,2.75,3.87h7.53c-.72-3.75-2.41-6.71-5.05-8.85-2.65-2.15-6.12-3.22-10.41-3.22-3.12,0-5.9.74-8.35,2.21-2.44,1.47-4.38,3.52-5.8,6.14-1.42,2.62-2.14,5.72-2.14,9.3s.7,6.68,2.1,9.33,3.34,4.69,5.8,6.14,5.26,2.17,8.38,2.17c4.16,0,7.55-1.09,10.18-3.26,2.62-2.17,4.39-5.11,5.29-8.82h-7.53c-.54,1.67-1.47,2.99-2.78,3.94-1.31.95-3.05,1.42-5.22,1.42-1.54,0-3-.42-4.38-1.26s-2.49-2.07-3.32-3.7c-.84-1.63-1.26-3.62-1.26-5.97s.42-4.4,1.26-6c.84-1.61,1.94-2.82,3.32-3.63h-.01ZM331.05,19.47c-4.12,0-7.52,1.03-10.21,3.09s-4.22,4.85-4.58,8.38h7.19c.45-1.85,1.35-3.2,2.68-4.04s2.97-1.26,4.92-1.26c4.7,0,7.06,2.53,7.06,7.6v.75h-8.68c-4.43,0-7.86.93-10.28,2.78-2.42,1.86-3.63,4.43-3.63,7.73,0,1.86.45,3.56,1.36,5.12.9,1.56,2.26,2.81,4.07,3.73,1.81.93,4.05,1.39,6.72,1.39,2.99,0,5.22-.57,6.72-1.7s2.74-2.49,3.73-4.07h.47l.61,4.95h6.11v-20.69c0-4.3-1.13-7.67-3.39-10.11s-5.88-3.66-10.86-3.66h-.01ZM335.63,46.03c-1.47,1.79-3.68,2.68-6.62,2.68-1.81,0-3.25-.42-4.31-1.26s-1.59-2-1.59-3.49.53-2.66,1.59-3.49c1.06-.84,2.88-1.26,5.46-1.26h7.87c-.14,2.76-.94,5.03-2.41,6.82h.01ZM378.89,23.2c-2.08-2.49-5.18-3.73-9.3-3.73-2.49,0-4.68.57-6.58,1.7-1.9,1.13-3.3,2.51-4.21,4.14h-.34l-.61-5.02h-6.24v33.65h7.19v-17.91c0-3.17.82-5.59,2.48-7.26,1.65-1.67,3.72-2.51,6.21-2.51s4.39.77,5.56,2.31c1.18,1.54,1.76,3.71,1.76,6.51v18.86h7.19v-19.74c0-4.84-1.04-8.5-3.12-10.99h0Z"/>
    </g>
  </g>
  <g id="svgviewer-output_图像">
    <path d="M45.66,4.85c1.33,1.68,2.03,3.53,1.96,5.65-.03.86,0,1.72,0,2.69h.71c1.14.05,2.3-.04,3.4.18,2.17.44,3.66,2.38,3.71,4.59.02,1.18.02,2.36,0,3.54,0,.88-.53,1.4-1.4,1.41-3.01,0-6.01.03-9.02,0-2.57-.04-4.65-2.17-4.71-4.74,0-.68,0-1.37,0-2.09h-3.02c-.81,3.64.58,7.28,3.5,9.01.63.37,1.36.6,2.07.83.19.06.53-.05.69-.2.85-.81,2.07-.83,2.83.01.73.81.64,2.04-.21,2.73-.87.71-2.11.51-2.8-.42-.15-.19-.4-.37-.63-.43-4.27-.97-7.12-4.46-7.18-8.83,0-.88,0-1.76,0-2.74h-11.27c-3.15,0-5.19-2.05-5.19-5.22v-3.01c0-.99.5-1.5,1.48-1.5,5.92,0,11.83-.01,17.75,0,2.68,0,4.78,2.08,4.87,4.76.02.68,0,1.37,0,2.09h3.03c.37-3.31.02-6.36-2.79-8.6-1.19-.95-2.54-1.48-4.07-1.48-1.81,0-3.62,0-5.42,0-.22,0-.5.18-.64.36-.54.72-1.36,1.03-2.18.77-.81-.25-1.33-.97-1.32-1.82,0-.84.55-1.57,1.35-1.81.8-.24,1.65.04,2.11.78.2.33.43.38.77.38,1.65,0,3.3.02,4.95,0,2.72-.04,4.92,1.02,6.68,3.12v-.02Z"/>
    <path d="M34.07,55.26c.08,1.08.15,2.11.22,3.18h2.97c.82-3.53-.6-7.24-3.46-8.99-.47-.28-.98-.49-1.49-.7-.57-.23-1.06-.32-1.61.24-.74.75-2.02.51-2.65-.34-.62-.82-.46-2,.35-2.64.83-.65,2.05-.5,2.67.37.22.32.46.47.83.55,4.17.94,7.04,4.49,7.1,8.78,0,.9,0,1.8,0,2.76h11.3c3.07,0,5.14,2.07,5.15,5.14v3.12c0,.94-.52,1.46-1.47,1.46-5.94,0-11.87.02-17.81,0-2.7-.01-4.79-2.16-4.82-4.87v-2.02c-.98,0-1.92,0-2.85.02-.09,0-.25.23-.25.35,0,1.1-.04,2.2.03,3.3.19,2.77,2.98,6.58,7.09,6.46,1.73-.05,3.46-.01,5.19,0,.32,0,.52-.06.71-.37.45-.74,1.31-1.03,2.1-.8.79.23,1.36.97,1.38,1.8,0,.82-.52,1.57-1.32,1.83-.82.27-1.68,0-2.16-.77-.19-.3-.39-.38-.71-.38-1.73.01-3.46-.03-5.19.01-4.97.11-8.55-4.43-8.46-8.51.02-.96,0-1.92,0-2.95h-2.98c-2.34-.03-4.37-1.61-4.71-3.92-.22-1.54-.12-3.13-.09-4.7.01-.62.6-1.08,1.28-1.08,3.09,0,6.17-.05,9.26.02,2.09.05,3.72,1.47,4.41,3.64h-.01Z"/>
    <path d="M55.68,37.19c-3.44.13-6.22,2.32-7.05,5.5-.1.37-.09.63.23.93.82.77.76,2.04-.08,2.77-.82.71-2.06.6-2.73-.25s-.49-2.05.37-2.73c.23-.18.45-.49.51-.77.95-4.16,4.52-7.05,8.8-7.09h2.77v-11.36c0-3,2.08-5.07,5.08-5.09h3.18c.95.01,1.46.52,1.46,1.46,0,5.94.03,11.87,0,17.81-.02,2.69-2.15,4.74-4.83,4.81-.66.02-1.33,0-2.03,0v3.03c3,.27,5.85.15,8.1-2.22,1.29-1.36,2.02-2.92,1.99-4.82-.02-1.73,0-3.46,0-5.19,0-.31-.04-.53-.35-.72-.77-.47-1.05-1.34-.8-2.15.25-.79.99-1.33,1.83-1.33s1.55.55,1.8,1.36c.25.83-.06,1.6-.8,2.16-.18.13-.33.42-.34.65-.04,1-.1,2.01,0,3.01.75,7.29-4.21,11.33-10.63,10.64-.25-.03-.5,0-.83,0v2.98c-.03,2.64-2.09,4.75-4.74,4.84-.63.02-1.26,0-1.89,0-.59,0-1.18.02-1.77,0-.78-.03-1.31-.53-1.31-1.31,0-3.09-.06-6.17.02-9.26.07-2.52,2.22-4.5,4.76-4.56.67-.02,1.33,0,2.05,0v-3.09h-2.78.01Z"/>
    <path d="M13.18,31.13c0-.86,0-1.67.02-2.47,0-.33-.12-.45-.45-.44-1,.02-2.01-.03-3.01.02-3.55.18-6.67,3.47-6.68,7.02,0,1.77,0,3.54,0,5.31,0,.22.16.51.34.64.73.55,1.05,1.34.8,2.17-.24.79-.98,1.35-1.81,1.35s-1.59-.55-1.82-1.34c-.25-.83.04-1.69.8-2.15.32-.19.36-.4.36-.71,0-1.77,0-3.54,0-5.31.02-4.42,3.8-8.24,8.23-8.3,1.04-.02,2.08,0,3.15,0,.02-.2.05-.35.05-.5,0-.85-.01-1.69,0-2.54.06-2.63,2.11-4.7,4.73-4.77,1.18-.03,2.36-.02,3.54,0,.95,0,1.44.51,1.44,1.48,0,2.91.01,5.82,0,8.73-.01,2.75-2.09,4.84-4.84,4.9-.65,0-1.29,0-1.99,0v3.08c2.16.04,4.35.24,6.34-.94,1.74-1.03,2.9-2.49,3.46-4.44.12-.43.12-.73-.26-1.08-.78-.74-.68-2.02.14-2.72.8-.69,2.01-.58,2.69.23.69.84.57,2.08-.32,2.71-.34.24-.48.5-.57.89-.89,4.03-4.47,6.94-8.6,7.02-.94.02-1.88,0-2.93,0v11.09c0,3.37-1.99,5.37-5.34,5.37h-2.89c-.99,0-1.48-.5-1.48-1.49,0-5.9-.02-11.79,0-17.69,0-2.81,2.14-4.88,4.96-4.91.63,0,1.26-.08,1.9-.18l.03-.03Z"/>
  </g>
</svg>